<svg xmlns="http://www.w3.org/2000/svg" viewBox="0 0 330.93 144.76"><defs><style>.cls-1{fill:#fff;}.cls-2{fill:#1b75ba;}.cls-3{fill:#df1f26;}</style></defs><title>Asset 86</title><g id="Layer_2" data-name="Layer 2"><g id="Layer_1-2" data-name="Layer 1"><path class="cls-1" d="M319.69,70a44.38,44.38,0,0,0-24.11-14.22,28.52,28.52,0,0,0-8.7-11.52,27.07,27.07,0,0,0-17.29-6A28.6,28.6,0,0,0,241.06,65c-.51-.6-1-1.18-1.61-1.75a27.64,27.64,0,0,0-20.18-8.41H203.33A43.41,43.41,0,0,0,171.61,68a47.75,47.75,0,0,0-5.56,6.64,29,29,0,0,0-27.38-19.82h-12A43.43,43.43,0,0,0,94.9,68a47,47,0,0,0-6.24,7.67A44.49,44.49,0,0,0,76.52,51.25a8.51,8.51,0,0,0,6.13-8.16V25.59A25.62,25.62,0,0,0,57.06,0H33.49A25.62,25.62,0,0,0,7.9,25.59v17.5a8.53,8.53,0,0,0,5.2,7.84A45.51,45.51,0,0,0,0,83v33.06a28.4,28.4,0,0,0,25.62,28.55c.9.08,1.82.13,2.71.13a28.44,28.44,0,0,0,16.25-5.14,28.14,28.14,0,0,0,13.54,5c.91.08,1.82.13,2.71.13a28.14,28.14,0,0,0,20-8.3,28.55,28.55,0,0,0,4.64-6.09,29.33,29.33,0,0,0,4.63,5.94A28.55,28.55,0,0,0,138.89,116v-4a27.9,27.9,0,0,0,19.73-8,45.12,45.12,0,0,0,44.71,40.76h15.81a27.82,27.82,0,0,0,20.31-8.41,29.5,29.5,0,0,0,5-6.65,29.12,29.12,0,0,0,5,6.55,27.87,27.87,0,0,0,20.22,8.39A27.45,27.45,0,0,0,286,139.48,28.63,28.63,0,0,0,330.93,116V99.44A43.09,43.09,0,0,0,319.69,70Z"/><path class="cls-2" d="M161.38,83.38a21.66,21.66,0,0,1-6.65,16A22,22,0,0,1,138.67,106h-5.78v10a22,22,0,0,1-6.58,16.06A22.62,22.62,0,0,1,87.72,116V99.69a39,39,0,0,1,38.9-38.9h12a22.71,22.71,0,0,1,22.71,22.59Zm-14.43,0a7.71,7.71,0,0,0-2.45-5.77,8.06,8.06,0,0,0-5.83-2.39h-12a24.43,24.43,0,0,0-24.47,24.47V116a8,8,0,0,0,2.38,5.89,7.84,7.84,0,0,0,5.78,2.39,8,8,0,0,0,5.83-2.39,7.89,7.89,0,0,0,2.45-5.89V99.69a8.15,8.15,0,0,1,8-8h12a7.91,7.91,0,0,0,5.9-2.44A8.11,8.11,0,0,0,147,83.38Z"/><path class="cls-2" d="M241.85,116a22.7,22.7,0,0,1-22.71,22.71H203.33a37.37,37.37,0,0,1-27.48-11.48,37.66,37.66,0,0,1-11.42-27.55,39,39,0,0,1,38.9-38.9h15.94a22.71,22.71,0,0,1,22.58,22.72,21.65,21.65,0,0,1-7.15,16.31A21,21,0,0,1,241.85,116Zm-14.43,0a7.83,7.83,0,0,0-2.38-5.77,8,8,0,0,0-5.9-2.39H203.33a7.75,7.75,0,0,1-5.65-2.38,7.87,7.87,0,0,1-2.38-5.78,8.15,8.15,0,0,1,8-8h15.94a8.13,8.13,0,0,0,8.15-8.15A8.07,8.07,0,0,0,225,77.67a7.76,7.76,0,0,0-5.77-2.45H203.33a24.53,24.53,0,0,0-24.47,24.47A23.82,23.82,0,0,0,186,117.08a23.48,23.48,0,0,0,17.32,7.21h15.81a8.15,8.15,0,0,0,8.28-8.28Z"/><path class="cls-2" d="M324.93,116A22.54,22.54,0,0,1,286,131.57a22.69,22.69,0,0,1-39-15.69V66.81a22.58,22.58,0,0,1,22.59-22.58,21.09,21.09,0,0,1,13.55,4.7A22.75,22.75,0,0,1,291.05,61,38.54,38.54,0,0,1,315.21,74a37.11,37.11,0,0,1,9.72,25.47Zm-14.56.12.13-16.56a23.14,23.14,0,0,0-7.09-17.26A24.41,24.41,0,0,0,278,76.48V66.94a8.29,8.29,0,0,0-16.57,0V116a8,8,0,0,0,2.39,5.89,7.8,7.8,0,0,0,5.77,2.39,8,8,0,0,0,5.83-2.39,7.89,7.89,0,0,0,2.45-5.89V99.57a8,8,0,0,1,13.74-5.65,7.81,7.81,0,0,1,2.32,5.65v16.56a7.75,7.75,0,0,0,2.45,5.77,8,8,0,0,0,5.84,2.39,8.14,8.14,0,0,0,8.15-8.16Z"/><path class="cls-2" d="M45.41,74.08a8.28,8.28,0,0,0-9.1,8.23v4a8.28,8.28,0,0,0,8.27,8.28h0a8.28,8.28,0,0,0,8.28-8.28V82.68A8.52,8.52,0,0,0,45.41,74.08Z"/><path class="cls-2" d="M44.58,43.73c-.64,0-1.28,0-1.93.05C22.1,44.79,6,62,6,83v33.06a22.41,22.41,0,0,0,20.19,22.57c.72.07,1.43.11,2.14.11a22.24,22.24,0,0,0,16.26-7,22,22,0,0,0,14.1,6.94c.72.07,1.43.11,2.14.11h0a22.33,22.33,0,0,0,22.33-22.33V82.31A38.62,38.62,0,0,0,44.58,43.73Zm24.23,72.7a8,8,0,0,1-8.76,7.93,8.19,8.19,0,0,1-7.19-8.28v-3.62a8.28,8.28,0,0,0-8.28-8.27h0a8.27,8.27,0,0,0-8.27,8.27v4a8,8,0,0,1-8.76,7.93,8.19,8.19,0,0,1-7.19-8.28V83c0-13,10-24.26,23-24.9A24.25,24.25,0,0,1,68.81,82.31Z"/><path class="cls-2" d="M57.06,6H33.49A19.61,19.61,0,0,0,13.9,25.59v17.5a2.52,2.52,0,0,0,2.51,2.51A2.47,2.47,0,0,0,18.09,45c4.72-4.31,15.39-7.1,27.18-7.1S67.74,40.64,72.46,45a2.45,2.45,0,0,0,1.68.65,2.52,2.52,0,0,0,2.51-2.51V25.59A19.61,19.61,0,0,0,57.06,6Zm14.8,32.71c-6.28-3.54-16-5.65-26.59-5.65S25,35.17,18.69,38.71V25.59a14.83,14.83,0,0,1,14.8-14.81H57.06a14.83,14.83,0,0,1,14.8,14.81Z"/><rect class="cls-3" x="36.36" y="19.28" width="17.83" height="7.38" rx="3.08"/><rect class="cls-3" x="41.58" y="14.06" width="7.38" height="17.83" rx="3.69"/></g></g></svg>