<?xml version="1.0" encoding="UTF-8"?>
<svg id="Layer_2" data-name="Layer 2" xmlns="http://www.w3.org/2000/svg" viewBox="0 0 182.22 176.79">
  <defs>
    <style>
      .cls-1 {
        fill: #fff;
      }

      .cls-2 {
        fill: #1e78be;
      }

      .cls-3 {
        fill: #1875ba;
      }

      .cls-4 {
        fill: #186993;
      }

      .cls-5 {
        fill: #e60082;
      }
    </style>
  </defs>
  <g id="Layer_1-2" data-name="Layer 1">
    <g>
      <g>
        <circle class="cls-2" cx="91.11" cy="80.54" r="80.54"/>
        <circle class="cls-5" cx="91.11" cy="80.54" r="77.69"/>
        <circle class="cls-2" cx="91.11" cy="80.54" r="53.23"/>
        <circle class="cls-1" cx="91.11" cy="80.54" r="49.83"/>
        <g>
          <g>
            <path class="cls-3" d="M153.23,161.5c-38.38-23.25-86.46-22.85-124.26,.71-6.73-7.48-13.82-14.68-21.28-21.57,50-34.37,116.15-34.83,166.84-.77-7.46,6.91-14.57,14.13-21.31,21.63Z"/>
            <path class="cls-1" d="M29.53,158.39l-.23-.25c-5.24-5.73-10.77-11.36-16.44-16.74l-.39-.37,.45-.29c23.48-15.16,50.7-23.17,78.73-23.17s54.36,7.76,77.64,22.43l.46,.29-.4,.38c-5.65,5.37-11.19,11.02-16.46,16.79l-.23,.25-.3-.17c-18.45-10.61-39.44-16.21-60.71-16.21s-43.14,5.84-61.83,16.89l-.3,.18Zm-15.69-17.23c5.46,5.2,10.79,10.63,15.85,16.15,18.75-11.01,40.16-16.83,61.96-16.83s42.34,5.58,60.84,16.15c5.09-5.56,10.43-11,15.88-16.2-23.03-14.4-49.55-22.01-76.72-22.01s-54.57,7.86-77.81,22.74Z"/>
          </g>
          <polygon class="cls-4" points="171.02 145.72 152.69 164.75 142.19 158.18 153.95 175.67 164.31 160.41 182.22 156.5 171.02 145.72"/>
          <polygon class="cls-4" points="11.19 146.84 29.53 165.87 40.03 159.29 28.27 176.79 17.91 161.53 0 157.62 11.19 146.84"/>
        </g>
        <g>
          <g>
            <path class="cls-5" d="M70.99,94.41c-.19-2.29,.12-4.43,1.76-6.2,1.3-1.4,2.91-2.13,4.83-2.35-2.2-.91-4.39-1.82-6.64-2.75,1.57-3.79,3.13-7.54,4.71-11.34-.91-.38-1.79-.75-2.73-1.14,.4-.97,.79-1.91,1.21-2.93,5.54,2.29,11.05,4.56,16.63,6.87-.4,.98-.79,1.93-1.21,2.94-3.65-1.51-7.27-3-10.96-4.53-.46,1.1-.9,2.16-1.36,3.26,1.49,.61,2.93,1.22,4.38,1.8,1.49,.6,2.94,1.3,4.47,1.76,3.89,1.18,7.49,.48,10.77-1.92,.11-.08,.23-.16,.36-.25,1.5,3.1,3.97,4.73,7.4,4.92,.03,.05,.05,.1,.08,.15-1.29,1.07-2.58,2.14-3.88,3.22,.14,0,.32,.02,.5,.02,1.48,.03,2.97-.04,4.44,.13,2.99,.34,5.53,3.13,5.72,6.13,.05,.74,.06,1.47,.1,2.21h-40.59Z"/>
            <path class="cls-5" d="M102.6,45.57c-.41,.99-.8,1.93-1.21,2.92-.51-.2-1.01-.4-1.54-.61-.3,.72-.59,1.42-.87,2.09,7.28,4.09,11.04,10.26,11.37,18.71-2.72-2.32-5.65-2.87-8.9-1.64-.6-3.86-2.5-6.82-5.86-8.89-.54,1.3-1.07,2.56-1.62,3.86-.44-.17-.86-.34-1.33-.52-.58,1.39-1.15,2.76-1.76,4.2-2.38-.98-4.73-1.96-7.14-2.95,.58-1.41,1.15-2.79,1.74-4.21-.44-.19-.85-.37-1.31-.57,1.96-4.72,3.9-9.41,5.87-14.14-.52-.22-1-.43-1.51-.66,.4-.97,.79-1.91,1.21-2.92,4.28,1.77,8.53,3.52,12.85,5.31Z"/>
            <path class="cls-5" d="M109.57,74.46c0,2.65-2.24,4.89-4.89,4.89-2.68,0-4.89-2.2-4.9-4.86,0-2.7,2.23-4.94,4.9-4.92,2.67,.02,4.89,2.24,4.88,4.89Z"/>
          </g>
          <g>
            <path class="cls-2" d="M125.07,99.93c-1.26-2.26-2.6-4.48-3.86-6.74-.27-.48-.44-1.08-.44-1.62-.03-10.72-.02-21.44-.02-32.17,0-3.14-1.98-5.14-5.09-5.14-2.77,0-5.53,0-8.3,0,1.07,1.32,1.97,2.75,2.71,4.29,1.79,0,3.58,0,5.37,0,.94,0,1.02,.07,1.02,.96,0,10.21,0,20.41,0,30.62v.67h-3.1c.09,.41,.15,.83,.18,1.26,.03,.53,.05,1.06,.07,1.57,0,.23,.02,.46,.03,.69,.01,.27-.03,.54-.12,.79,1.02,0,2.04,0,3.06,0,.56,0,.87,.14,1.15,.65,1.11,2.01,2.29,3.99,3.43,5.98,.85,1.48,.22,2.57-1.47,2.57-9.4,0-18.81,0-28.21,0-9.27,0-18.54,0-27.81,0-.27,0-.54,.01-.8-.02-1.07-.15-1.68-1.2-1.15-2.14,1.26-2.26,2.57-4.49,3.88-6.73,.09-.15,.34-.22,.53-.29,.12-.04,.27,0,.4,0,.84,0,1.68,0,2.52,0-.06-.17-.11-.35-.12-.55-.09-1.06-.12-2.39,.2-3.77h-2.48v-.74c0-10.16,0-20.32,0-30.49,0-.96,.06-1.02,1.02-1.02,4.84,0,9.68,0,14.53,0-.13-.44-.12-.92,.07-1.38l1.21-2.91c-5.35,0-10.71,0-16.06,0-.51,0-1.03,.05-1.52,.18-2.21,.59-3.53,2.42-3.53,4.85,0,9.74-.08,19.48,.05,29.22,.04,2.72-.35,5.15-2.01,7.32-.19,.25-.33,.53-.47,.81-.95,1.78-2.24,3.4-2.69,5.43v1.47c.04,.1,.09,.2,.11,.31,.7,3.01,2.86,4.74,5.95,4.74,18.83,0,37.66,0,56.49,0,.53,0,1.08-.04,1.59-.16,3.8-.9,5.61-5.06,3.68-8.5Z"/>
            <path class="cls-2" d="M68.93,94.58c.02,.19,.06,.37,.12,.55,14.82,0,29.65,0,44.47-.01,.09-.25,.13-.52,.12-.79,0-.23-.02-.46-.03-.69-.02-.51-.04-1.04-.07-1.57-.03-.43-.09-.85-.18-1.26h-44.24c-.31,1.39-.28,2.71-.2,3.77Z"/>
          </g>
        </g>
      </g>
      <g>
        <path class="cls-1" d="M37.46,113.89l-5.53,3.3c-.07-.07-.17-.18-.31-.34-.14-.15-.26-.32-.36-.5-.21-.36-.3-.66-.27-.91,.03-.25,.22-.47,.57-.68l4.74-2.83,1.17,1.96Zm-3.33-.67l6.11-3.65,.67,.84c.19,.32,.24,.63,.17,.93-.08,.3-.27,.55-.59,.74l-5.19,3.1-1.17-1.96Zm5.17-1.85l-3.01-5.04c.05-.11,.12-.24,.23-.36s.24-.24,.4-.33c.27-.16,.52-.22,.74-.18,.22,.05,.4,.18,.53,.4l2.71,4.55-1.61,.96Z"/>
        <path class="cls-1" d="M27.67,104.31c-.45-1.1-.57-2.07-.37-2.92,.2-.84,.81-1.47,1.82-1.89l3.93-1.61c.27-.11,.51-.13,.72-.06,.21,.07,.41,.18,.62,.33,.31,.24,.62,.58,.94,1.02s.6,.96,.85,1.57c.46,1.12,.6,2.1,.43,2.92-.17,.82-.69,1.41-1.55,1.77-.75,.31-1.43,.3-2.03-.01-.61-.32-1.14-.91-1.61-1.8l-1.19-2.24-.31,.13c-.46,.19-.73,.49-.81,.89-.07,.4,0,.89,.24,1.45,.18,.44,.41,.85,.7,1.22,.29,.37,.57,.69,.87,.96-.04,.15-.13,.3-.24,.45-.12,.15-.26,.26-.43,.33-.41,.17-.79,.07-1.16-.3-.28-.26-.54-.58-.78-.97-.25-.39-.46-.8-.63-1.23Zm6.95-2.92c-.14-.35-.31-.65-.49-.89-.18-.24-.35-.41-.48-.52l-1.97,.81,.87,1.65c.22,.45,.47,.77,.74,.95,.27,.18,.57,.2,.9,.07,.33-.13,.54-.37,.63-.72,.09-.34,.02-.79-.2-1.35Z"/>
        <path class="cls-1" d="M26.79,97.13l-4.55,1.05c-.04-.08-.1-.2-.18-.37-.08-.17-.14-.36-.19-.58-.09-.41-.09-.72,.02-.94,.11-.22,.35-.37,.72-.46l3.69-.85,.5,2.15Zm-2.59-3.78c-.18-.76-.17-1.49,.02-2.19,.19-.69,.58-1.29,1.15-1.8,.57-.51,1.36-.88,2.37-1.11,.99-.23,1.86-.23,2.62-.01,.76,.22,1.38,.63,1.87,1.22,.49,.59,.84,1.34,1.04,2.23,.15,.67,.21,1.28,.17,1.82-.04,.54-.14,1.01-.27,1.39-.11,.29-.25,.51-.41,.67-.16,.16-.38,.27-.64,.33l-5.8,1.34-.5-2.15,5.68-1.31c.07-.18,.12-.42,.15-.71,.03-.3,0-.62-.08-.98-.16-.68-.51-1.18-1.07-1.49-.56-.31-1.3-.36-2.23-.15-.96,.22-1.61,.59-1.95,1.1-.35,.51-.44,1.1-.29,1.77,.1,.42,.26,.77,.5,1.06,.24,.29,.48,.52,.73,.69l-1.7,.56c-.24-.23-.49-.54-.76-.91-.26-.37-.46-.83-.58-1.38Z"/>
        <path class="cls-1" d="M26.97,77.57c.93-.06,1.75,.08,2.46,.41,.71,.33,1.28,.81,1.69,1.46,.41,.64,.65,1.42,.7,2.33,.05,.89-.09,1.69-.42,2.38-.33,.7-.83,1.25-1.5,1.65-.66,.41-1.47,.64-2.41,.7-.94,.06-1.77-.08-2.47-.41-.71-.33-1.27-.82-1.69-1.47-.42-.65-.66-1.42-.71-2.32-.05-.88,.09-1.67,.43-2.36,.34-.69,.84-1.24,1.5-1.65,.66-.41,1.47-.65,2.41-.7Zm-2.58,4.63c.04,.67,.32,1.19,.85,1.56,.53,.37,1.23,.53,2.13,.47,.91-.05,1.59-.29,2.06-.7,.47-.41,.68-.97,.64-1.67-.04-.68-.32-1.21-.84-1.57-.52-.36-1.22-.52-2.12-.46s-1.58,.29-2.06,.71c-.48,.42-.7,.97-.66,1.66Z"/>
        <path class="cls-1" d="M27.56,73.24l-.18,2.2-2.69-.22c-.31-.02-.56-.12-.75-.27-.2-.16-.37-.38-.54-.66-.2-.39-.35-.86-.44-1.44-.09-.57-.12-1.18-.06-1.83,.09-1.14,.48-1.68,1.17-1.62,.17,.01,.33,.05,.46,.11,.14,.06,.26,.13,.36,.21-.03,.12-.07,.27-.11,.45-.04,.18-.07,.37-.08,.57-.04,.45-.02,.88,.04,1.28,.07,.4,.17,.74,.3,1.02l2.53,.21Zm-.62-.05l4.67,.38c.03,.1,.05,.24,.07,.42,.02,.18,.02,.37,0,.58-.03,.42-.13,.71-.29,.9s-.43,.26-.81,.23l-3.94-.32,.31-2.19Z"/>
        <path class="cls-1" d="M24,63.97c.25-1.16,.7-2.03,1.34-2.62,.65-.58,1.5-.76,2.57-.53l4.15,.9c.29,.06,.5,.18,.63,.35,.13,.17,.24,.38,.33,.63,.12,.38,.19,.83,.2,1.37s-.05,1.13-.19,1.78c-.26,1.19-.69,2.07-1.3,2.65s-1.37,.78-2.28,.58c-.79-.17-1.35-.56-1.67-1.16-.32-.6-.43-1.4-.31-2.39l.28-2.52-.32-.07c-.49-.11-.88-.01-1.17,.27-.29,.29-.5,.73-.63,1.33-.1,.47-.14,.94-.12,1.41,.02,.47,.08,.9,.18,1.28-.12,.1-.27,.18-.45,.23-.18,.06-.36,.06-.54,.02-.43-.09-.69-.39-.78-.9-.08-.37-.12-.78-.1-1.24,.02-.46,.08-.92,.17-1.37Zm7.38,1.52c.08-.37,.11-.71,.1-1.01-.02-.3-.05-.54-.1-.7l-2.08-.45-.21,1.85c-.07,.5-.04,.9,.08,1.2,.12,.3,.36,.49,.71,.57,.35,.08,.66,0,.93-.23,.27-.23,.47-.64,.59-1.23Z"/>
        <path class="cls-1" d="M30.1,58.69l-6.23-2.24c0-.1,.01-.25,.04-.44s.08-.38,.15-.57c.14-.38,.31-.64,.52-.77,.21-.13,.49-.14,.85,0l5.42,1.94-.75,2.08Zm-3.45-2.64l1.22-3.41c.09-.02,.21-.03,.38-.02,.17,0,.33,.04,.49,.1,.29,.1,.48,.24,.56,.42,.09,.17,.09,.38,0,.61l-1.04,2.89-1.63-.58Zm3.72,.4l2.08,.75c.38,.14,.69,.12,.94-.05,.24-.17,.44-.46,.58-.86,.07-.18,.11-.4,.14-.63,.03-.24,.03-.44,.02-.62,.12-.05,.26-.08,.42-.1,.16-.02,.32,0,.5,.06,.32,.12,.54,.37,.65,.76,.11,.39,.04,.92-.2,1.59-.32,.9-.78,1.54-1.37,1.92-.59,.38-1.35,.4-2.27,.07l-2.22-.79,.75-2.08Z"/>
        <path class="cls-1" d="M36.48,44.56c.83,.43,1.46,.97,1.9,1.62,.44,.65,.68,1.35,.7,2.12,.02,.77-.18,1.55-.6,2.35-.41,.79-.94,1.4-1.59,1.83-.64,.42-1.35,.64-2.13,.65-.78,0-1.59-.21-2.42-.64-.84-.44-1.47-.98-1.91-1.63-.44-.65-.67-1.36-.69-2.13-.02-.77,.17-1.56,.58-2.35,.41-.78,.94-1.38,1.58-1.8,.65-.42,1.36-.63,2.14-.64,.78-.01,1.59,.2,2.43,.64Zm-4.59,2.64c-.31,.6-.34,1.19-.08,1.77,.26,.59,.79,1.09,1.58,1.5,.8,.42,1.51,.57,2.13,.46,.61-.11,1.08-.48,1.41-1.1,.32-.61,.35-1.2,.09-1.78-.26-.58-.78-1.07-1.58-1.49-.79-.41-1.5-.56-2.13-.45-.63,.12-1.1,.48-1.42,1.09Z"/>
        <path class="cls-1" d="M39.22,41.14l-1.29,1.79-2.19-1.58c-.25-.18-.42-.39-.5-.62-.09-.24-.13-.52-.12-.84,.03-.43,.15-.92,.36-1.46,.22-.54,.51-1.07,.89-1.6,.67-.93,1.28-1.19,1.83-.79,.14,.1,.25,.21,.34,.33,.09,.12,.15,.25,.2,.37-.09,.09-.2,.2-.33,.33-.13,.13-.25,.28-.36,.44-.26,.37-.47,.74-.62,1.12-.15,.38-.24,.72-.27,1.03l2.06,1.48Zm-.51-.37l3.81,2.74c-.03,.1-.08,.23-.16,.39s-.18,.33-.3,.5c-.24,.34-.48,.54-.72,.62-.23,.07-.5,0-.81-.22l-3.21-2.31,1.39-1.72Z"/>
        <path class="cls-1" d="M45.12,36.99c-.44-.13-.96-.31-1.58-.56s-1.31-.54-2.08-.9c-.77-.36-1.6-.76-2.48-1.22-.01-.2,.02-.41,.08-.62,.07-.21,.19-.41,.36-.59,.21-.22,.44-.36,.68-.41,.24-.05,.53,.01,.86,.18,.9,.44,1.81,.86,2.72,1.27s1.84,.81,2.8,1.21l.05-.05c-.22-.53-.51-1.14-.87-1.81s-.75-1.37-1.18-2.07c-.42-.7-.84-1.35-1.25-1.95,.05-.16,.11-.31,.18-.45,.08-.14,.18-.28,.3-.41,.21-.22,.44-.36,.69-.42,.25-.06,.49,.02,.72,.24,.2,.2,.44,.5,.72,.91,.28,.41,.57,.89,.88,1.42,.31,.54,.61,1.11,.9,1.72,.29,.61,.56,1.22,.81,1.83,.25,.61,.46,1.18,.62,1.72,.36,1.21,.57,2.21,.62,2.98,.05,.77-.09,1.33-.42,1.67-.26,.27-.55,.42-.87,.44-.32,.02-.62-.07-.89-.27,.02-.36,.01-.75-.01-1.2-.03-.44-.08-.89-.15-1.36-.08-.46-.17-.89-.29-1.27-.19,.11-.42,.17-.7,.18-.28,.01-.68-.06-1.21-.23Z"/>
        <path class="cls-1" d="M58.42,22.7l-3.17-5.58c.07-.07,.19-.17,.35-.3,.16-.13,.32-.25,.49-.34,.37-.21,.68-.3,.92-.26,.24,.04,.46,.24,.66,.59l2.71,4.78-1.97,1.12Zm.69-3.37l3.6,6.35c-.07,.08-.18,.18-.33,.3-.15,.12-.32,.23-.51,.34-.37,.21-.68,.3-.93,.25-.24-.04-.46-.23-.65-.56l-3.16-5.57,1.97-1.12Z"/>
        <path class="cls-1" d="M70.63,17.91l-2.06,.85-.65-1.58c-.21-.51-.51-.82-.9-.94-.39-.12-.82-.08-1.31,.12-.35,.14-.65,.32-.9,.53-.25,.21-.45,.42-.62,.63l1.07,2.6-2.04,.84-1.13-2.74c-.11-.27-.15-.51-.11-.73,.04-.21,.14-.45,.32-.71,.24-.35,.6-.72,1.07-1.1,.47-.38,1.03-.7,1.68-.97,1.14-.47,2.14-.58,2.99-.34,.85,.25,1.48,.87,1.89,1.86l.69,1.67Zm-5.7,1.36l1.82,4.4c-.08,.07-.19,.16-.34,.25-.15,.1-.33,.18-.52,.26-.39,.16-.7,.21-.93,.15-.24-.06-.43-.27-.57-.62l-1.49-3.6,2.04-.84Zm5.35-2.21l1.82,4.4c-.08,.07-.19,.16-.35,.26-.16,.1-.33,.19-.53,.27-.39,.16-.7,.21-.93,.15-.24-.06-.43-.27-.57-.62l-1.49-3.6,2.06-.85Z"/>
        <path class="cls-1" d="M74.49,13.99l-2.07,.52-.6-2.37c-.19-.75-.19-1.4-.01-1.94,.18-.54,.51-.99,.99-1.35s1.07-.62,1.77-.8c.76-.19,1.37-.24,1.81-.13,.45,.1,.72,.35,.82,.74,.04,.18,.05,.35,.02,.52-.03,.17-.09,.31-.18,.43-.24-.04-.51-.05-.82-.04-.31,.01-.61,.06-.92,.14-.62,.16-1.04,.39-1.27,.7-.23,.31-.27,.74-.13,1.3l.57,2.28Zm-.09-.66l1.78,7.06c-.09,.06-.21,.13-.38,.2-.16,.07-.35,.13-.55,.19-.4,.1-.72,.1-.95,.01s-.39-.33-.48-.69l-1.57-6.22,2.14-.54Zm-.6-.66l3.58-.9c.08,.06,.16,.15,.24,.29,.09,.14,.15,.29,.19,.47,.07,.3,.06,.53-.04,.7-.1,.17-.27,.29-.51,.35l-3.05,.77-.42-1.68Z"/>
        <path class="cls-1" d="M88.52,14.1c.1,.93,0,1.75-.28,2.48-.29,.73-.75,1.31-1.37,1.76-.62,.44-1.39,.72-2.29,.82-.89,.1-1.69,0-2.4-.3-.71-.3-1.29-.77-1.73-1.41-.44-.64-.71-1.43-.81-2.37-.1-.94,0-1.77,.29-2.49,.3-.72,.76-1.31,1.39-1.76,.63-.45,1.39-.73,2.28-.82,.88-.1,1.67,0,2.37,.31,.71,.31,1.28,.78,1.73,1.42,.45,.64,.72,1.43,.82,2.37Zm-4.75-2.35c-.67,.07-1.18,.38-1.52,.92-.34,.54-.46,1.26-.37,2.15,.1,.9,.37,1.57,.8,2.02,.44,.44,1,.63,1.7,.55,.68-.07,1.19-.38,1.53-.92,.34-.54,.46-1.25,.36-2.14-.1-.89-.37-1.56-.81-2.02-.44-.46-1.01-.65-1.69-.57Z"/>
        <path class="cls-1" d="M92.9,13.85l-.15,4.69c-.1,.03-.24,.06-.42,.09-.18,.02-.37,.03-.58,.03-.42-.01-.72-.1-.91-.25-.19-.15-.28-.42-.27-.8l.13-3.95,2.2,.2Zm-.02,.63l-2.21-.07,.09-2.7c.01-.31,.09-.56,.24-.76,.15-.2,.36-.39,.63-.57,.38-.22,.85-.39,1.42-.52,.57-.12,1.18-.17,1.83-.15,1.14,.04,1.7,.4,1.68,1.08,0,.17-.03,.33-.09,.47-.05,.14-.12,.26-.2,.37-.12-.03-.27-.06-.46-.09-.18-.03-.37-.05-.57-.06-.45-.01-.88,.02-1.27,.11-.4,.09-.73,.2-1,.35l-.08,2.54Z"/>
        <path class="cls-1" d="M100.36,14.28l-.99,4.66c-.1,.02-.25,.02-.43,.01-.18,0-.37-.03-.58-.08-.41-.09-.69-.22-.85-.41-.16-.19-.2-.46-.12-.84l.81-3.81,2.16,.46Zm5.03,1.99l-2.18-.46,.39-1.82c.1-.48,.04-.86-.2-1.15-.23-.29-.57-.48-1.02-.57-.3-.06-.59-.08-.88-.04-.29,.04-.54,.1-.74,.18l-.58,2.75-2.16-.46,.61-2.88c.06-.29,.17-.51,.32-.66,.15-.16,.37-.29,.66-.41,.41-.16,.91-.27,1.49-.31,.58-.05,1.16,0,1.73,.11,.59,.12,1.11,.33,1.56,.61,.45,.28,.8,.64,1.03,1.07,.07,.09,.13,.18,.19,.26,.06,.09,.1,.18,.13,.29,.07,.19,.12,.41,.14,.66,.02,.25,0,.51-.05,.77l-.44,2.05Zm.19-.88l-.99,4.66c-.1,.02-.25,.02-.43,.01-.19,0-.38-.03-.59-.08-.41-.09-.69-.22-.85-.41-.16-.18-.2-.46-.12-.83l.81-3.81,2.18,.46Zm5.03,1.99l-2.18-.46,.39-1.82c.1-.48,.04-.86-.18-1.15-.22-.28-.55-.47-1-.57-.34-.07-.67-.07-1.01,0-.33,.07-.64,.2-.92,.38l-.79-1.58c.42-.22,.91-.4,1.47-.52,.56-.12,1.18-.1,1.88,.04,.62,.13,1.17,.36,1.64,.68,.47,.32,.81,.74,1.01,1.25,.2,.51,.23,1.13,.08,1.85l-.4,1.89Zm.19-.88l-.99,4.66c-.1,.01-.25,.02-.43,.01-.19,0-.38-.03-.59-.08-.41-.09-.69-.22-.85-.41-.16-.19-.2-.46-.12-.83l.81-3.81,2.18,.46Z"/>
        <path class="cls-1" d="M118.05,15.1c1.09,.47,1.86,1.08,2.31,1.83,.45,.75,.45,1.62,.02,2.62l-1.68,3.9c-.12,.27-.27,.45-.47,.55-.2,.1-.42,.16-.68,.2-.39,.04-.85,.02-1.38-.06-.53-.09-1.1-.26-1.71-.53-1.11-.48-1.9-1.08-2.35-1.79-.45-.71-.5-1.49-.13-2.35,.32-.74,.81-1.21,1.46-1.41,.65-.2,1.45-.15,2.41,.16l2.42,.76,.13-.3c.2-.46,.18-.86-.04-1.2-.23-.34-.62-.63-1.19-.87-.44-.19-.89-.32-1.36-.38-.46-.07-.89-.09-1.29-.08-.07-.14-.12-.3-.14-.49-.02-.19,0-.37,.08-.54,.17-.41,.52-.6,1.04-.6,.38-.01,.79,.04,1.24,.14,.45,.11,.89,.25,1.31,.44Zm-2.92,6.95c.35,.15,.67,.25,.98,.29,.3,.04,.54,.05,.71,.03l.84-1.96-1.78-.57c-.48-.16-.87-.22-1.19-.15-.32,.06-.55,.26-.69,.58-.14,.33-.12,.64,.05,.95,.17,.31,.54,.58,1.09,.82Z"/>
        <path class="cls-1" d="M124.19,22.82l-1.13,1.89c-.21,.35-.25,.66-.13,.93,.12,.27,.37,.52,.74,.74,.17,.1,.37,.19,.59,.26,.23,.07,.43,.12,.6,.14,.02,.13,.03,.27,.02,.43s-.06,.32-.16,.47c-.18,.29-.47,.46-.87,.49s-.91-.14-1.52-.5c-.82-.49-1.36-1.06-1.62-1.72s-.13-1.4,.37-2.24l1.21-2.02,1.89,1.13Zm-2.15-.71l3.4-5.68c.1,.02,.24,.06,.42,.12,.18,.06,.35,.15,.53,.25,.35,.21,.57,.43,.65,.66,.09,.23,.04,.51-.16,.84l-2.96,4.94-1.89-1.13Zm3.26-2.87l3.11,1.86c0,.09-.01,.21-.05,.38-.04,.16-.1,.32-.19,.46-.16,.26-.33,.42-.52,.47-.19,.05-.39,.01-.6-.11l-2.63-1.58,.89-1.48Z"/>
        <path class="cls-1" d="M130.24,26.9l-2.86,3.88c-.1-.03-.23-.08-.39-.16-.16-.08-.33-.19-.51-.32-.33-.24-.53-.48-.6-.72-.08-.24,0-.51,.22-.82l2.34-3.18,1.79,1.32Zm-2.47-.4l2.91-3.95c.09,.04,.22,.1,.39,.18,.17,.08,.33,.19,.5,.31,.34,.25,.54,.49,.61,.72,.07,.23-.01,.51-.24,.83l-2.38,3.23-1.79-1.32Zm4.34-6.21c.21-.29,.49-.45,.82-.5,.34-.05,.66,.04,.95,.26,.32,.23,.5,.51,.54,.85,.05,.33-.04,.64-.25,.93-.2,.28-.47,.44-.8,.5-.33,.06-.66-.03-.97-.26-.3-.22-.47-.5-.52-.84-.05-.34,.02-.65,.23-.93Z"/>
        <path class="cls-1" d="M138.25,34.71c-.64,.68-1.33,1.14-2.07,1.39-.74,.25-1.49,.28-2.23,.09-.74-.19-1.44-.59-2.1-1.22-.65-.61-1.09-1.29-1.33-2.02-.23-.73-.25-1.48-.04-2.23,.2-.75,.63-1.47,1.28-2.16,.65-.69,1.34-1.15,2.09-1.39,.74-.24,1.49-.27,2.24-.08,.75,.19,1.45,.59,2.1,1.2,.64,.61,1.07,1.28,1.3,2.01,.22,.74,.24,1.48,.04,2.24s-.62,1.48-1.27,2.16Zm-1.29-5.14c-.49-.46-1.05-.65-1.69-.56-.63,.09-1.26,.46-1.87,1.11-.62,.66-.96,1.3-1.02,1.92-.06,.62,.17,1.17,.68,1.65,.5,.47,1.06,.66,1.69,.57,.63-.09,1.25-.46,1.86-1.11,.61-.65,.95-1.29,1.01-1.93,.06-.63-.16-1.19-.66-1.66Z"/>
        <path class="cls-1" d="M141.39,37.87l-3.8,2.87c-.09-.06-.2-.15-.33-.27-.13-.12-.26-.27-.39-.43-.25-.33-.38-.62-.38-.87,0-.25,.15-.48,.45-.71l3.11-2.35,1.33,1.76Zm2.76,5.17l-1.34-1.77,1.36-1.03c.44-.33,.67-.7,.69-1.11,.02-.4-.13-.82-.45-1.24-.23-.3-.48-.55-.74-.73-.26-.19-.52-.33-.77-.43l-2.24,1.7-1.33-1.76,2.36-1.79c.23-.18,.46-.28,.68-.29,.22-.02,.47,.02,.76,.13,.4,.14,.84,.4,1.33,.76,.49,.36,.94,.82,1.36,1.38,.75,.99,1.11,1.92,1.09,2.81-.02,.88-.46,1.65-1.32,2.3l-1.44,1.09Zm.73-.55l-3.8,2.87c-.09-.06-.2-.15-.34-.28-.14-.13-.27-.28-.39-.44-.25-.33-.38-.62-.38-.87,0-.25,.15-.48,.45-.71l3.11-2.35,1.34,1.77Z"/>
        <path class="cls-1" d="M149.33,59.27c.22,.69,.52,1.15,.91,1.39,.38,.24,.78,.29,1.19,.16,.37-.12,.64-.34,.79-.67,.15-.33,.22-.78,.2-1.35v-1.29c0-.63,.05-1.2,.17-1.72,.11-.51,.32-.95,.63-1.31,.31-.36,.74-.63,1.3-.81,.95-.3,1.81-.19,2.58,.34,.77,.53,1.36,1.4,1.75,2.62,.21,.65,.33,1.26,.36,1.81,.03,.55-.03,1.01-.16,1.39-.14,.37-.36,.61-.68,.71-.21,.07-.42,.07-.62,.02-.21-.06-.39-.15-.54-.28,.12-.34,.18-.76,.18-1.27,0-.51-.1-1.05-.27-1.61-.19-.61-.46-1.04-.79-1.29-.33-.25-.69-.32-1.08-.2-.3,.1-.51,.29-.63,.58-.11,.29-.17,.7-.16,1.24l.02,1.09c.02,1.1-.14,2.01-.48,2.73-.34,.72-.96,1.22-1.84,1.51-.96,.31-1.85,.19-2.68-.34-.83-.53-1.46-1.47-1.89-2.81-.23-.71-.35-1.37-.38-1.96-.02-.6,.05-1.1,.21-1.5,.17-.4,.41-.65,.74-.76,.26-.08,.5-.07,.73,.03,.23,.1,.42,.23,.58,.39-.16,.38-.27,.85-.34,1.4-.07,.55,0,1.15,.21,1.79Z"/>
        <path class="cls-1" d="M151.7,66.36c.37-.27,.83-.58,1.4-.92,.57-.35,1.22-.72,1.97-1.12,.75-.4,1.57-.82,2.47-1.25,.17,.11,.31,.26,.44,.44,.13,.18,.21,.4,.25,.64,.05,.3,.02,.57-.09,.79-.11,.22-.33,.42-.66,.58-.9,.45-1.78,.92-2.65,1.41-.87,.48-1.76,.98-2.65,1.5v.07c.57,.15,1.23,.28,1.99,.4,.76,.12,1.54,.22,2.36,.31,.81,.09,1.58,.14,2.31,.18,.1,.13,.18,.27,.24,.42,.07,.14,.11,.31,.14,.49,.05,.3,.02,.57-.08,.81-.11,.23-.32,.38-.63,.43-.28,.04-.66,.05-1.16,.03-.49-.03-1.05-.08-1.66-.16s-1.25-.19-1.91-.32c-.66-.14-1.31-.29-1.95-.46-.64-.17-1.22-.35-1.74-.54-1.19-.44-2.11-.87-2.75-1.3-.65-.42-1.01-.87-1.08-1.34-.06-.38,0-.7,.18-.96,.18-.27,.43-.45,.75-.55,.27,.23,.59,.47,.96,.71,.37,.24,.76,.48,1.17,.7,.41,.22,.81,.4,1.19,.53,.03-.22,.12-.44,.27-.67,.16-.23,.46-.51,.92-.83Z"/>
        <path class="cls-1" d="M153.23,80.75c-.85,.01-1.52-.29-2.01-.92-.49-.62-.75-1.54-.77-2.74-.02-.98,.12-1.79,.4-2.41,.28-.63,.67-.95,1.14-.95,.21,0,.4,.04,.57,.14,.17,.09,.32,.22,.43,.38-.22,.35-.41,.75-.58,1.2-.17,.46-.25,.97-.24,1.55,.02,1.05,.35,1.58,1,1.57,.28,0,.5-.1,.67-.29,.16-.19,.28-.48,.36-.87l.26-1.09c.18-.89,.48-1.54,.89-1.97,.41-.43,.96-.65,1.64-.66,.76-.01,1.39,.29,1.9,.91,.51,.62,.77,1.49,.78,2.62,0,.59-.04,1.11-.15,1.57-.11,.46-.27,.83-.48,1.09s-.47,.4-.78,.41c-.21,0-.39-.04-.55-.13-.16-.09-.29-.2-.39-.33,.1-.15,.19-.35,.29-.61,.1-.26,.18-.55,.24-.86,.06-.31,.09-.63,.09-.95,0-.48-.09-.86-.25-1.14-.16-.28-.38-.42-.68-.41-.21,0-.39,.09-.54,.25-.15,.16-.27,.43-.35,.81l-.22,.96c-.21,1-.53,1.72-.97,2.18-.44,.45-1.02,.69-1.73,.7Z"/>
        <path class="cls-1" d="M155.22,85.09l-2.19-.24c-.4-.04-.7,.05-.9,.27-.2,.22-.32,.55-.37,.98-.02,.19-.02,.41,.01,.65,.03,.24,.07,.44,.13,.61-.11,.07-.23,.14-.38,.2-.15,.06-.31,.08-.5,.06-.34-.04-.61-.23-.8-.59-.2-.35-.25-.89-.18-1.59,.1-.95,.4-1.68,.89-2.19,.49-.51,1.22-.71,2.19-.6l2.34,.26-.24,2.19Zm-.25-2.25l6.58,.72c.03,.1,.05,.25,.06,.43,.02,.19,.01,.38,0,.59-.04,.4-.15,.69-.33,.87s-.45,.25-.83,.21l-5.72-.63,.24-2.19Zm3.97,1.77l-.39,3.6c-.08,.04-.2,.08-.36,.11-.16,.03-.33,.04-.5,.02-.3-.03-.52-.13-.65-.27s-.17-.35-.15-.59l.33-3.05,1.72,.19Z"/>
        <path class="cls-1" d="M154.31,90.79l-.47,5c.47,.08,.92,0,1.34-.24,.42-.24,.7-.65,.85-1.25,.15-.62,.06-1.19-.26-1.7-.33-.52-.89-.88-1.68-1.09l-.91-.16c-.8-.08-1.44,.07-1.93,.47-.49,.4-.82,.97-1.01,1.72-.12,.5-.16,.98-.12,1.44,.05,.46,.13,.84,.24,1.15-.13,.13-.29,.23-.48,.29-.19,.06-.37,.07-.56,.02-.3-.07-.52-.27-.68-.6-.15-.33-.23-.74-.24-1.22,0-.49,.06-1.03,.21-1.62,.22-.92,.59-1.69,1.11-2.31,.51-.63,1.16-1.05,1.93-1.28,.77-.23,1.66-.22,2.66,.03,.73,.18,1.34,.44,1.83,.8,.49,.35,.88,.77,1.15,1.25,.27,.48,.44,.99,.5,1.54,.06,.55,.02,1.11-.12,1.68-.19,.77-.52,1.42-.98,1.93-.47,.51-1.02,.86-1.66,1.06-.64,.2-1.32,.21-2.03,.03-.33-.08-.56-.23-.68-.43s-.16-.46-.12-.77l.58-6.01,1.54,.28Z"/>
        <path class="cls-1" d="M146.63,111.52l-4.31-2.03c0-.1,.04-.25,.09-.43,.05-.18,.12-.36,.21-.55,.18-.38,.37-.62,.59-.74,.22-.11,.5-.09,.84,.07l3.53,1.66-.95,2.01Zm2.27-4.82l-4.31-2.03c0-.1,.04-.25,.09-.43,.05-.18,.12-.36,.21-.55,.18-.38,.38-.62,.59-.74s.5-.09,.84,.07l3.53,1.66-.95,2.01Zm-3.09,4.44l.95-2.01,1.68,.79c.44,.21,.83,.24,1.16,.09s.59-.43,.78-.84c.15-.31,.22-.64,.23-.98s-.05-.67-.16-.98l1.72-.41c.12,.46,.17,.98,.16,1.55-.01,.57-.17,1.18-.47,1.82-.27,.58-.62,1.06-1.04,1.44s-.9,.62-1.45,.7c-.55,.08-1.15-.03-1.82-.35l-1.75-.82Zm5.36-9.26l-4.31-2.03c0-.1,.04-.24,.08-.42,.05-.17,.12-.36,.21-.54,.18-.38,.38-.62,.59-.74,.22-.11,.5-.09,.84,.07l3.53,1.66-.94,2Zm-3.09,4.44l.95-2.01,1.68,.79c.44,.21,.83,.23,1.17,.07,.33-.16,.6-.45,.79-.86,.13-.28,.21-.56,.24-.85s.03-.55,0-.76l-2.54-1.2,.94-2,2.66,1.25c.27,.13,.46,.28,.57,.46,.12,.18,.2,.43,.24,.73,.07,.44,.05,.94-.03,1.52-.09,.57-.26,1.13-.51,1.66-.26,.54-.57,1-.95,1.38-.38,.38-.8,.63-1.27,.76-.1,.05-.2,.09-.3,.12-.1,.04-.2,.05-.31,.06-.2,.03-.43,.02-.68-.01-.25-.03-.49-.11-.74-.22l-1.9-.89Z"/>
      </g>
      <g>
        <path class="cls-1" d="M45.68,132.4c-.02,.48-.05,1.01-.08,1.58-.03,.57-.06,1.17-.08,1.8-.03,.63-.03,1.28-.03,1.94,.09,.93,.19,1.87,.29,2.8,0,.34,.01,.67,.03,.99,.02,.32,.04,.62,.05,.91,.01,.29,.03,.56,.04,.83,.02,.27,.03,.53,.04,.78-.19,.13-.4,.27-.63,.41-.23,.15-.53,.28-.87,.4-.79,.27-1.43,.34-1.92,.22-.49-.13-.82-.43-.99-.9-.08-.21-.12-.44-.13-.68-.01-.24-.03-.51-.05-.83-.05-.54-.08-1.24-.09-2.1-.01-.87-.01-1.81,0-2.82,.01-1.01,.04-2,.08-2.98,.04-.97,.09-1.85,.14-2.63,.05-.78,.09-1.35,.13-1.72,.25-.25,.66-.55,1.23-.88,.57-.33,1.16-.59,1.76-.78,.88-.27,1.71-.39,2.46-.36,.76,.03,1.29,.27,1.61,.72,.54,.71,1.13,1.56,1.78,2.53,.64,.98,1.3,2.01,1.98,3.08,.67,1.08,1.31,2.13,1.93,3.15,.61,1.03,1.15,1.95,1.61,2.77-.14,.25-.39,.5-.74,.74-.35,.24-.79,.43-1.32,.57-.79,.21-1.37,.23-1.75,.06-.38-.17-.72-.5-1.01-.99-.42-.69-.83-1.39-1.26-2.08-.4-.76-.8-1.51-1.2-2.27-.35-.56-.69-1.1-1.02-1.61-.34-.51-.66-1-.96-1.46-.31-.46-.59-.88-.86-1.26-.05,.02-.1,.03-.16,.05Zm-.95,5.35c1.83-.59,3.67-1.14,5.52-1.66,.47,1.01,.94,2.02,1.4,3.03-2.55,.7-5.08,1.48-7.6,2.32,.21-1.23,.44-2.46,.68-3.69Z"/>
        <path class="cls-1" d="M56.98,136.01c-.65-2.79-1.3-5.59-1.95-8.38-.08-.33-.03-.61,.14-.85,.17-.23,.42-.44,.73-.63,.57-.33,1.24-.62,2.03-.88,.79-.26,1.65-.48,2.57-.66,2.49-.48,4.46-.32,5.86,.42,1.41,.74,2.21,1.92,2.43,3.49,.14,.98-.04,1.9-.51,2.76-.48,.86-1.17,1.59-2.08,2.19-.9,.6-1.95,1.01-3.15,1.24-2.03,.39-4.06,.81-6.08,1.28Zm4.08-2.58c.42,2.1,.84,4.19,1.27,6.29-.17,.08-.44,.19-.8,.31-.36,.13-.74,.23-1.13,.31-.84,.18-1.47,.17-1.88-.04-.41-.21-.7-.69-.87-1.41-.35-1.5-.7-2.99-1.05-4.49,1.48-.35,2.97-.67,4.46-.97Zm.93-1.8c.72-.14,1.29-.4,1.7-.8,.41-.4,.57-.9,.46-1.51-.11-.61-.4-1.03-.89-1.27-.49-.23-1.2-.27-2.14-.08-.23,.04-.43,.09-.6,.14-.17,.05-.35,.11-.54,.18,.24,1.2,.48,2.39,.72,3.59,.43-.09,.86-.17,1.29-.25Zm3.87,.84c.46,.42,.92,.83,1.38,1.23,.46,.4,.9,.8,1.31,1.18,.41,.38,.78,.74,1.12,1.07,.34,.33,.61,.62,.81,.87-.09,.57-.33,1.04-.72,1.41-.39,.37-.85,.6-1.39,.68-.7,.11-1.26,.05-1.68-.19-.42-.24-.83-.58-1.23-1.02-1.15-1.25-2.32-2.49-3.52-3.71,1.3-.52,2.61-1.02,3.93-1.51Z"/>
        <path class="cls-1" d="M84.05,124.42c.02,.41-.08,.77-.3,1.1-.22,.33-.47,.59-.77,.78-.46-.25-.96-.46-1.51-.63-.55-.16-1.17-.22-1.87-.17-.91,.07-1.67,.3-2.27,.71-.6,.4-1.03,.95-1.3,1.64-.26,.69-.35,1.49-.25,2.41,.14,1.42,.63,2.47,1.46,3.14,.82,.68,1.89,.96,3.22,.86,.69-.05,1.27-.17,1.74-.38,.47-.21,.92-.43,1.35-.68,.3,.2,.54,.46,.71,.77,.17,.32,.27,.69,.29,1.11,.02,.37-.07,.72-.26,1.04-.19,.32-.51,.59-.98,.83-.29,.15-.71,.3-1.24,.46-.54,.16-1.19,.27-1.96,.33-1.48,.11-2.85-.04-4.12-.47-1.27-.42-2.34-1.16-3.21-2.21-.87-1.05-1.44-2.47-1.67-4.26-.22-1.68-.04-3.14,.57-4.39,.6-1.25,1.52-2.25,2.76-2.99,1.23-.74,2.65-1.18,4.22-1.3,1.11-.08,2.07-.03,2.87,.15,.8,.18,1.41,.46,1.85,.83,.44,.37,.66,.81,.68,1.31Z"/>
        <path class="cls-1" d="M86.81,131.81c-.08-3.23-.17-6.45-.25-9.68,.22-.04,.54-.09,.97-.16,.43-.07,.84-.1,1.25-.11,.91-.01,1.57,.13,1.97,.4,.4,.28,.6,.81,.6,1.61-.01,2.62-.02,5.25-.03,7.87-1.5,0-3,.01-4.5,.05Zm4.52-5.68c-.01,3.58-.03,7.17-.04,10.75-.18,.05-.46,.1-.84,.15-.38,.05-.77,.08-1.17,.08-.86,0-1.46-.13-1.82-.42-.35-.29-.54-.81-.56-1.56-.08-2.98-.16-5.96-.24-8.94,1.56-.04,3.11-.06,4.67-.05Zm-2.6,5.08c-.02-1.12-.03-2.24-.04-3.36,3.46-.05,6.92,.02,10.37,.21-.06,1.12-.12,2.24-.18,3.36-3.38-.18-6.76-.25-10.14-.21Zm7.52,.65c.12-3.22,.24-6.45,.36-9.67,.22-.02,.55-.06,.98-.09,.43-.04,.85-.05,1.25-.03,.91,.05,1.56,.23,1.94,.55,.38,.32,.54,.87,.49,1.67-.18,2.6-.35,5.21-.53,7.81-1.5-.1-3-.18-4.5-.23Zm4.87-5.38c-.24,3.58-.48,7.15-.72,10.73-.19,.04-.47,.07-.85,.09-.38,.03-.77,.03-1.17,0-.86-.05-1.45-.22-1.79-.54-.34-.31-.49-.84-.46-1.59,.11-2.98,.22-5.96,.33-8.94,1.56,.06,3.11,.14,4.67,.24Z"/>
        <path class="cls-1" d="M109.2,132.91c.4-3.2,.8-6.4,1.2-9.6,.22,0,.55,0,.98,0,.43,0,.85,.03,1.25,.08,.91,.13,1.54,.36,1.9,.7,.36,.33,.47,.9,.35,1.68-.4,2.59-.81,5.19-1.21,7.78-1.49-.23-2.98-.44-4.47-.63Zm5.33-4.94c-.55,3.5-1.09,7-1.64,10.5-.68-.03-1.37-.06-2.05-.08-.71-.1-1.24-.37-1.6-.83-.36-.46-.5-1.03-.41-1.72,.35-2.84,.71-5.68,1.06-8.52,1.55,.19,3.09,.41,4.64,.65Zm-3.21,7.02c2.61,.37,5.22,.81,7.82,1.32,.08,.2,.15,.45,.19,.76,.04,.31,.03,.63-.04,.96-.12,.59-.34,1-.66,1.24-.32,.24-.71,.31-1.16,.22-2.2-.42-4.41-.78-6.63-1.09,.16-1.13,.32-2.27,.48-3.4Z"/>
        <path class="cls-1" d="M122.24,135.13c.68-3.15,1.36-6.31,2.05-9.46,.22,.02,.55,.04,.98,.08,.43,.04,.85,.1,1.24,.19,.9,.21,1.51,.5,1.84,.86,.33,.36,.39,.93,.2,1.71-.63,2.55-1.27,5.1-1.9,7.64-1.47-.36-2.94-.71-4.41-1.02Zm5.77-4.44c-.86,3.48-1.73,6.96-2.59,10.43-.19,0-.48-.02-.86-.06-.38-.04-.77-.11-1.16-.2-.84-.2-1.4-.47-1.68-.84-.28-.37-.34-.92-.18-1.65,.63-2.92,1.26-5.83,1.89-8.75,1.53,.33,3.06,.69,4.58,1.06Z"/>
        <path class="cls-1" d="M133.93,140.37c.8,.25,1.4,.3,1.81,.16,.41-.14,.66-.37,.76-.68,.1-.31,.05-.6-.16-.86-.21-.26-.53-.55-.96-.85-.31-.22-.63-.43-.95-.65-.87-.61-1.63-1.19-2.28-1.75-.65-.57-1.11-1.19-1.38-1.87-.27-.68-.29-1.48-.05-2.39,.36-1.33,1.21-2.25,2.59-2.73,1.38-.47,3.13-.4,5.21,.25,1.02,.32,1.9,.7,2.64,1.14,.73,.43,1.27,.91,1.6,1.41,.33,.5,.4,1.02,.21,1.56-.14,.38-.36,.68-.67,.9-.31,.22-.64,.38-1,.48-.3-.34-.74-.71-1.32-1.08-.58-.37-1.25-.68-2.01-.93-.78-.25-1.38-.33-1.8-.24-.42,.08-.68,.27-.77,.57-.07,.23-.01,.46,.17,.68,.19,.22,.47,.45,.86,.71,.41,.27,.82,.55,1.23,.82,1.46,.98,2.48,2,3.05,3.02,.58,1.02,.64,2.14,.19,3.37-.47,1.3-1.4,2.16-2.76,2.61-1.36,.45-3.05,.33-5.11-.3-.97-.3-1.82-.66-2.55-1.09-.73-.43-1.27-.91-1.63-1.44-.36-.54-.46-1.09-.31-1.67,.12-.46,.36-.81,.73-1.05,.37-.25,.74-.41,1.12-.49,.37,.47,.85,.93,1.44,1.37,.59,.44,1.28,.78,2.06,1.02Z"/>
      </g>
    </g>
  </g>
</svg>