<?xml version="1.0" encoding="UTF-8"?>
<svg id="Layer_2" data-name="Layer 2" xmlns="http://www.w3.org/2000/svg" viewBox="0 0 724.71 604.97">
  <defs>
    <style>
      .cls-1 {
        fill: #fff;
      }

      .cls-2 {
        fill: #c2775a;
      }

      .cls-3 {
        fill: #96889d;
      }

      .cls-4 {
        fill: #d6a390;
      }

      .cls-5 {
        fill: #c6beca;
      }

      .cls-6 {
        fill: #544b6b;
      }

      .cls-7 {
        fill: #ff4950;
      }

      .cls-8 {
        fill: #604b6b;
      }

      .cls-9 {
        fill: #2a77c2;
      }

      .cls-10 {
        fill: #c17659;
      }

      .cls-11 {
        fill: #b0a5b5;
      }

      .cls-12 {
        fill: #746d87;
      }

      .cls-13 {
        fill: #ffa18d;
      }

      .cls-14 {
        fill: #6a627e;
      }

      .cls-15 {
        fill: #52d2cf;
      }

      .cls-16 {
        fill: #e3ebf4;
      }

      .cls-17 {
        fill: #cfcdd6;
      }

      .cls-18 {
        fill: #b7aebc;
      }
    </style>
  </defs>
  <g id="Layer_1-2" data-name="Layer 1">
    <g>
      <g id="Scientist_1" data-name="Scientist 1">
        <g>
          <g>
            <polygon class="cls-17" points="151.89 375.8 124.42 375.8 87.77 279.65 115.24 279.65 151.89 375.8"/>
            <path class="cls-6" d="M151.89,377.63h-27.47c-.76,0-1.44-.47-1.71-1.18l-36.65-96.15c-.21-.56-.14-1.19,.2-1.69,.34-.5,.91-.79,1.51-.79h27.47c.76,0,1.44,.47,1.71,1.18l36.65,96.15c.21,.56,.14,1.2-.2,1.69-.34,.5-.91,.79-1.51,.79Zm-26.21-3.66h23.55l-35.25-92.49h-23.55l35.25,92.49Z"/>
          </g>
          <g>
            <rect class="cls-14" x="1.83" y="176.63" width="191.32" height="124.61" rx="62.3" ry="62.3"/>
            <path class="cls-6" d="M130.85,303.06H64.13C28.77,303.06,0,274.29,0,238.93s28.77-64.13,64.13-64.13h66.72c35.36,0,64.13,28.77,64.13,64.13s-28.77,64.13-64.13,64.13Zm-66.72-124.61c-33.34,0-60.47,27.13-60.47,60.47s27.13,60.47,60.47,60.47h66.72c33.34,0,60.47-27.13,60.47-60.47s-27.13-60.47-60.47-60.47H64.13Z"/>
          </g>
          <g>
            <rect class="cls-17" x="128.68" y="369.9" width="19.13" height="164.3"/>
            <path class="cls-6" d="M147.81,536.03h-19.13c-1.01,0-1.83-.82-1.83-1.83v-164.3c0-1.01,.82-1.83,1.83-1.83h19.13c1.01,0,1.83,.82,1.83,1.83v164.3c0,1.01-.82,1.83-1.83,1.83Zm-17.29-3.66h15.46v-160.64h-15.46v160.64Z"/>
          </g>
          <g>
            <rect class="cls-12" x="105.21" y="511.6" width="66.07" height="22.6"/>
            <path class="cls-6" d="M171.28,536.03H105.21c-1.01,0-1.83-.82-1.83-1.83v-22.6c0-1.01,.82-1.83,1.83-1.83h66.07c1.01,0,1.83,.82,1.83,1.83v22.6c0,1.01-.82,1.83-1.83,1.83Zm-64.24-3.66h62.41v-18.94h-62.41v18.94Z"/>
          </g>
          <g>
            <rect class="cls-12" x="52.62" y="363.2" width="171.26" height="39.99" rx="19.99" ry="19.99"/>
            <path class="cls-6" d="M204.75,405.02H71.74c-11.56,0-20.96-9.4-20.96-20.96v-1.74c0-11.56,9.4-20.96,20.96-20.96H204.75c11.56,0,20.96,9.4,20.96,20.96v1.74c0,11.56-9.4,20.96-20.96,20.96Zm-133.01-39.99c-9.54,0-17.29,7.76-17.29,17.29v1.74c0,9.54,7.76,17.29,17.29,17.29H204.75c9.54,0,17.29-7.76,17.29-17.29v-1.74c0-9.54-7.76-17.29-17.29-17.29H71.74Z"/>
          </g>
          <g>
            <g>
              <path class="cls-17" d="M26.69,543.96c-3.65,0-6.81-2.72-7.26-6.43-.49-4.02,2.36-7.67,6.38-8.16l92.15-11.3c4.01-.49,7.67,2.36,8.16,6.38,.49,4.02-2.36,7.67-6.38,8.16l-92.15,11.3c-.3,.04-.6,.06-.9,.06Z"/>
              <path class="cls-6" d="M26.69,545.79c-4.61,0-8.52-3.46-9.08-8.04-.61-5.01,2.96-9.59,7.97-10.2l92.15-11.3c2.42-.3,4.82,.37,6.75,1.87,1.93,1.51,3.15,3.67,3.45,6.1,.61,5.01-2.96,9.59-7.97,10.2l-92.15,11.3c-.37,.05-.75,.07-1.12,.07Zm92.17-25.95c-.23,0-.45,.01-.68,.04l-92.15,11.3c-3.01,.37-5.15,3.12-4.78,6.12,.34,2.75,2.68,4.83,5.44,4.83,.23,0,.45-.01,.68-.04l92.15-11.3c3.01-.37,5.15-3.12,4.78-6.12-.18-1.46-.91-2.76-2.07-3.66-.98-.76-2.15-1.17-3.37-1.17Z"/>
            </g>
            <g>
              <circle class="cls-17" cx="32.45" cy="553.75" r="19.46"/>
              <path class="cls-6" d="M32.45,575.03c-11.74,0-21.29-9.55-21.29-21.29s9.55-21.29,21.29-21.29,21.29,9.55,21.29,21.29-9.55,21.29-21.29,21.29Zm0-38.91c-9.72,0-17.63,7.91-17.63,17.63s7.91,17.63,17.63,17.63,17.63-7.91,17.63-17.63-7.91-17.63-17.63-17.63Z"/>
            </g>
            <path class="cls-6" d="M32.45,564.41c-5.88,0-10.67-4.78-10.67-10.67s4.79-10.67,10.67-10.67,10.67,4.79,10.67,10.67-4.79,10.67-10.67,10.67Z"/>
          </g>
          <g>
            <g>
              <path class="cls-17" d="M251.73,543.96c3.65,0,6.81-2.72,7.26-6.43,.49-4.02-2.36-7.67-6.38-8.16l-92.15-11.3c-4.01-.49-7.67,2.36-8.16,6.38-.49,4.02,2.36,7.67,6.38,8.16l92.15,11.3c.3,.04,.6,.06,.9,.06Z"/>
              <path class="cls-6" d="M251.73,545.79c-.37,0-.75-.02-1.12-.07l-92.15-11.3c-5.01-.62-8.59-5.19-7.97-10.2,.3-2.43,1.52-4.59,3.45-6.1,1.93-1.51,4.33-2.17,6.75-1.87l92.15,11.3c5.01,.62,8.59,5.19,7.97,10.2-.56,4.58-4.47,8.04-9.08,8.04Zm-92.17-25.95c-1.22,0-2.39,.4-3.37,1.17-1.16,.9-1.89,2.2-2.07,3.66-.37,3.01,1.78,5.75,4.78,6.12l92.15,11.3c.22,.03,.45,.04,.68,.04,2.77,0,5.11-2.07,5.44-4.83,.37-3.01-1.78-5.75-4.78-6.12l-92.15-11.3c-.23-.03-.46-.04-.68-.04Z"/>
            </g>
            <g>
              <circle class="cls-17" cx="245.98" cy="553.75" r="19.46"/>
              <path class="cls-6" d="M245.98,575.03c-11.74,0-21.29-9.55-21.29-21.29s9.55-21.29,21.29-21.29,21.29,9.55,21.29,21.29-9.55,21.29-21.29,21.29Zm0-38.91c-9.72,0-17.63,7.91-17.63,17.63s7.91,17.63,17.63,17.63,17.63-7.91,17.63-17.63-7.91-17.63-17.63-17.63Z"/>
            </g>
            <path class="cls-6" d="M245.98,564.41c-5.88,0-10.67-4.78-10.67-10.67s4.79-10.67,10.67-10.67,10.67,4.79,10.67,10.67-4.79,10.67-10.67,10.67Z"/>
          </g>
          <path class="cls-6" d="M25.38,223.59c-.17,0-.34-.02-.51-.07-.97-.28-1.53-1.3-1.25-2.27,7.07-24.24,34.43-32.31,35.59-32.64,.97-.28,1.98,.28,2.26,1.26,.28,.97-.28,1.99-1.26,2.26-.27,.08-26.59,7.87-33.09,30.15-.23,.8-.96,1.32-1.76,1.32Z"/>
          <path class="cls-6" d="M36.17,278.54c-.38,0-.76-.12-1.08-.36-8.05-5.93-12.93-15.28-14.1-27.05-.88-8.77,.58-15.73,.64-16.02,.21-.99,1.18-1.62,2.17-1.41,.99,.21,1.62,1.18,1.41,2.17-.06,.26-5.4,26.49,12.05,39.35,.81,.6,.99,1.75,.39,2.56-.36,.49-.91,.75-1.48,.75Z"/>
          <path class="cls-6" d="M72.47,395.29c-.37,0-.75-.11-1.08-.35-9.63-7-5.16-20.07-1.46-26,.54-.86,1.67-1.12,2.52-.58,.86,.54,1.12,1.67,.58,2.52-.05,.08-2.34,3.81-3.34,8.34-1.26,5.69,.04,9.98,3.85,12.75,.82,.59,1,1.74,.4,2.56-.36,.49-.92,.75-1.48,.75Z"/>
        </g>
        <g>
          <g>
            <polygon class="cls-5" points="266.52 540.93 255.32 577.56 330.63 577.56 285.34 540.93 266.52 540.93"/>
            <path class="cls-6" d="M330.63,579.4h-75.31c-.58,0-1.13-.28-1.47-.74-.35-.47-.45-1.07-.28-1.62l11.19-36.64c.24-.77,.95-1.3,1.75-1.3h18.83c.42,0,.83,.14,1.15,.41l45.29,36.64c.6,.49,.83,1.3,.57,2.03-.26,.73-.95,1.22-1.73,1.22Zm-72.84-3.66h67.66l-40.76-32.98h-16.82l-10.08,32.98Z"/>
          </g>
          <g>
            <polygon class="cls-5" points="195.79 542.45 184.59 579.09 259.9 579.09 214.61 542.45 195.79 542.45"/>
            <path class="cls-6" d="M259.9,580.92h-75.31c-.58,0-1.13-.28-1.47-.74-.35-.47-.45-1.07-.28-1.62l11.19-36.64c.24-.77,.95-1.3,1.75-1.3h18.83c.42,0,.83,.14,1.15,.41l45.29,36.64c.6,.49,.83,1.3,.57,2.03-.26,.73-.95,1.22-1.73,1.22Zm-72.84-3.66h67.66l-40.76-32.98h-16.82l-10.08,32.98Z"/>
          </g>
          <g>
            <g>
              <path class="cls-13" d="M317.16,92.17c-3.26,6.01-13.07,27.77-10.73,40.09l-29.68,24.61,13.12,15.94,30.53-26.99c9.17,2.59,16.52-6.93,22.15-12.71l.03,.03,21.71-17.38c2.55-3.07-1.3-6.84-4.48-4.39-4.79,3.68-17.97,11.44-17.97,11.44l17.85-16.93c1.68-1.35,1.8-3.7,.71-4.9-1.16-1.29-3.74-1.32-5.19,.51-5.52,4.72-19.64,15.12-19.64,15.12l18.02-20.68c1.81-1.46,1.78-4.03,.49-5.19-1.23-1.11-3.64-.96-4.97,.8-5.73,5.84-19.79,18.12-19.79,18.12l14.24-19.67c3.86-3.45-1.18-8.4-4.48-4.39-6.19,7.27-14.51,18.54-20.7,25.81-1.43-5.11,8.16-18.35,3.13-21.16-1.68-.73-3.72,.12-4.37,1.9Z"/>
              <path class="cls-6" d="M289.87,174.64s-.1,0-.14,0c-.5-.04-.95-.28-1.27-.66l-13.12-15.94c-.64-.78-.53-1.93,.25-2.57l28.88-23.94c-1.72-12.87,7.49-33.55,11.04-40.12,.51-1.26,1.51-2.28,2.76-2.81,1.29-.55,2.75-.55,4.01,0,.05,.02,.11,.05,.16,.08,4.27,2.38,1.94,8.49-.11,13.87-.28,.73-.57,1.5-.85,2.28,1.91-2.38,3.9-4.93,5.86-7.43,3.58-4.57,7.28-9.3,10.4-12.96,1.39-1.7,3.3-2.44,5.2-2.03,1.8,.39,3.27,1.81,3.74,3.6,.49,1.85-.13,3.75-1.69,5.22l-4.13,5.71c2.66-2.44,5.18-4.82,6.93-6.59,.95-1.2,2.35-1.96,3.85-2.1,1.41-.13,2.77,.29,3.73,1.15,1.01,.91,1.57,2.29,1.52,3.79-.05,1.57-.76,3.05-1.96,4.08l-6.33,7.26c2.07-1.62,3.97-3.13,5.35-4.31,1.03-1.2,2.5-1.92,4.06-1.96,1.49-.04,2.88,.51,3.79,1.52,.85,.94,1.27,2.27,1.16,3.64-.12,1.49-.85,2.89-2.02,3.86l-4.65,4.41c.94-.64,1.78-1.24,2.44-1.75,2.46-1.89,5.32-1.25,6.89,.37,1.78,1.85,1.83,4.58,.11,6.64-.08,.1-.17,.18-.26,.26l-21.71,17.38s-.1,.07-.15,.11c-.57,.6-1.17,1.23-1.78,1.88-5.18,5.53-12.21,13.03-20.91,11.26l-29.82,26.35c-.34,.3-.77,.46-1.21,.46Zm-10.54-17.52l10.75,13.06,29.11-25.73c.47-.41,1.11-.56,1.71-.39,7,1.97,13.23-4.67,18.23-10,.73-.78,1.43-1.53,2.11-2.22,.15-.16,.33-.28,.52-.37l21.23-16.99c.59-.82,.18-1.41-.04-1.63-.42-.43-1.17-.66-2.01-.01-4.83,3.71-17.62,11.25-18.16,11.57-.8,.47-1.83,.27-2.39-.48s-.47-1.79,.2-2.43l17.85-16.93s.07-.07,.11-.1c.58-.46,.7-1.04,.73-1.35,.03-.37-.06-.71-.23-.9-.18-.2-.56-.32-.96-.31-.33,.01-.95,.12-1.44,.73-.07,.09-.15,.18-.24,.25-5.51,4.71-19.16,14.77-19.74,15.2-.75,.55-1.8,.45-2.43-.23-.63-.69-.65-1.74-.03-2.44l18.02-20.68c.07-.08,.15-.16,.23-.22,.61-.49,.72-1.11,.73-1.44,.01-.4-.11-.78-.32-.96-.19-.17-.56-.26-.93-.23-.31,.03-.9,.17-1.36,.77-.05,.06-.1,.12-.15,.18-5.71,5.83-19.31,17.72-19.89,18.22-.7,.61-1.75,.6-2.44-.03-.69-.63-.8-1.67-.25-2.43l14.24-19.67c.08-.11,.17-.2,.26-.29,.44-.39,.92-1.01,.74-1.7-.12-.47-.52-.85-.98-.95-.66-.14-1.24,.35-1.61,.8-3.09,3.63-6.77,8.33-10.32,12.87-3.58,4.57-7.28,9.3-10.4,12.96-.44,.52-1.13,.75-1.79,.6-.66-.15-1.19-.64-1.37-1.3-.77-2.76,.7-6.61,2.25-10.68,1.28-3.34,3.19-8.37,1.82-9.33-.32-.11-.69-.1-1.02,.04-.22,.09-.62,.33-.81,.84-.03,.08-.07,.16-.11,.24-2.81,5.17-12.82,26.9-10.54,38.88,.12,.65-.12,1.33-.63,1.75l-28.28,23.45Zm37.84-64.95h0Z"/>
            </g>
            <g>
              <path class="cls-15" d="M317.16,92.17c-3.26,6.01-13.98,26.23-11.64,38.55l-6.1,5.62,15.15,16.75,6.71-6.09c9.17,2.59,15.65-8.09,21.28-13.87l.03,.03,21.71-17.38c2.55-3.07-1.3-6.84-4.48-4.39-4.79,3.68-17.97,11.44-17.97,11.44l17.85-16.93c1.68-1.35,1.8-3.7,.71-4.9-1.16-1.29-3.74-1.32-5.19,.51-5.52,4.72-19.64,15.12-19.64,15.12l18.02-20.68c1.81-1.46,1.78-4.03,.49-5.19-1.23-1.11-3.64-.96-4.97,.8-5.73,5.84-19.79,18.12-19.79,18.12l14.24-19.67c3.86-3.45-1.18-8.4-4.48-4.39-6.19,7.27-14.51,18.54-20.7,25.81-1.43-5.11,8.16-18.35,3.13-21.16-1.68-.73-3.72,.12-4.37,1.9Z"/>
              <path class="cls-6" d="M314.57,154.92s-.06,0-.09,0c-.49-.02-.94-.24-1.27-.6l-15.15-16.75c-.67-.74-.62-1.89,.12-2.57l5.37-4.95c-1.47-10.97,5.6-26.95,11.94-38.64,.51-1.26,1.51-2.28,2.76-2.81,1.29-.55,2.75-.55,4.01,0,.05,.02,.11,.05,.16,.08,4.27,2.38,1.94,8.49-.11,13.87-.28,.73-.57,1.5-.85,2.28,1.91-2.38,3.9-4.93,5.86-7.43,3.58-4.57,7.28-9.3,10.4-12.96,1.39-1.7,3.3-2.44,5.2-2.03,1.8,.39,3.27,1.81,3.74,3.6,.49,1.85-.13,3.75-1.69,5.22l-4.13,5.71c2.66-2.44,5.18-4.82,6.93-6.59,.95-1.2,2.35-1.96,3.85-2.1,1.41-.13,2.77,.29,3.73,1.15,1.01,.91,1.57,2.29,1.52,3.79-.05,1.57-.76,3.05-1.96,4.08l-6.33,7.26c2.07-1.62,3.97-3.13,5.35-4.3,1.03-1.2,2.5-1.92,4.06-1.96,1.49-.04,2.88,.51,3.79,1.52,.85,.94,1.27,2.27,1.16,3.64-.12,1.49-.85,2.89-2.02,3.86l-4.65,4.41c.94-.64,1.78-1.24,2.44-1.75,2.46-1.89,5.32-1.25,6.89,.37,1.78,1.85,1.83,4.58,.11,6.64-.08,.1-.17,.18-.26,.26l-21.71,17.38s-.09,.07-.14,.1c-.96,1.01-1.96,2.17-3.01,3.39-4.82,5.6-10.77,12.51-18.79,10.92l-5.99,5.44c-.34,.31-.78,.48-1.23,.48Zm-12.57-18.46l12.7,14.04,5.35-4.86c.47-.42,1.12-.58,1.73-.41,6.28,1.77,11.46-4.24,16.03-9.55,1.19-1.38,2.31-2.69,3.44-3.84,.15-.16,.33-.28,.52-.37l21.23-16.99c.59-.82,.18-1.41-.04-1.63-.42-.43-1.17-.66-2.01-.01-4.83,3.71-17.62,11.25-18.16,11.57-.8,.47-1.83,.27-2.39-.48s-.47-1.79,.2-2.43l17.85-16.93s.07-.07,.11-.1c.58-.46,.7-1.04,.73-1.35,.03-.37-.06-.71-.23-.9-.18-.2-.56-.32-.96-.31-.33,.01-.95,.12-1.44,.73-.07,.09-.15,.18-.24,.25-5.51,4.71-19.16,14.77-19.74,15.2-.75,.55-1.8,.45-2.43-.23-.63-.69-.65-1.74-.03-2.44l18.02-20.68c.07-.08,.15-.16,.23-.22,.61-.49,.72-1.11,.73-1.44,.01-.4-.11-.78-.32-.96-.19-.17-.56-.26-.93-.23-.31,.03-.9,.17-1.36,.77-.05,.06-.1,.12-.15,.18-5.71,5.83-19.31,17.72-19.89,18.22-.7,.61-1.75,.6-2.44-.03-.69-.63-.8-1.67-.25-2.43l14.24-19.67c.08-.11,.17-.2,.26-.29,.44-.39,.92-1.01,.74-1.7-.12-.47-.52-.85-.98-.95-.66-.14-1.24,.35-1.61,.8-3.09,3.63-6.77,8.33-10.32,12.87-3.58,4.57-7.28,9.3-10.4,12.96-.44,.52-1.13,.75-1.79,.6-.66-.15-1.19-.64-1.37-1.3-.77-2.76,.7-6.61,2.25-10.68,1.28-3.34,3.19-8.37,1.82-9.33-.32-.11-.69-.1-1.02,.04-.22,.09-.62,.33-.81,.84-.03,.08-.07,.16-.11,.24-8.86,16.31-12.93,29.57-11.45,37.34,.12,.62-.09,1.26-.56,1.69l-4.76,4.39Zm15.16-44.29h0Z"/>
            </g>
            <g>
              <path class="cls-1" d="M137.47,155.94s-6.13,14.86,13.23,29.84c12.66,9.8,68.7,53.17,83.44,49.73,19.27-4.49,74.29-71.87,74.29-71.87l-19.29-20.87s-59.22,49.65-60.64,50.36-60.15-46.22-61.45-47.14c-1.3-.93-12.37-9.76-25.65,2.05"/>
              <path class="cls-6" d="M232.39,237.52c-11.85,0-39.67-16.89-82.81-50.3-20.22-15.66-14.07-31.33-13.8-31.99,.38-.93,1.45-1.38,2.39-.99,.93,.38,1.38,1.45,1,2.38-.24,.6-5.23,13.86,12.65,27.7,20.44,15.83,69.35,52.33,81.9,49.4,5.24-1.22,17.03-8.65,43.43-37.07,13.46-14.5,25.38-28.76,28.85-32.95l-17.02-18.42c-22.31,18.7-58.28,48.79-59.67,49.47-1.4,.69-1.77,.88-24.29-16.59-11.78-9.14-25.58-20.07-33-25.94-3.23-2.55-5.77-4.57-6.04-4.77l-.17-.12c-4.28-3.13-12.98-7.04-23.2,2.06-.76,.67-1.91,.6-2.59-.15-.67-.76-.6-1.91,.15-2.59,12.6-11.21,23.64-5.32,27.8-2.27l.14,.1c.27,.19,1.98,1.55,6.18,4.87,12.11,9.58,47.82,37.86,53.98,41.65,5.47-4.3,37.88-31.36,59.69-49.65,.75-.63,1.86-.56,2.52,.16l19.29,20.87c.62,.67,.65,1.69,.07,2.4-2.26,2.77-55.65,67.92-75.3,72.5-.65,.15-1.37,.23-2.17,.23Z"/>
            </g>
            <path class="cls-6" d="M317.45,143.63c-.52,0-1.03-.22-1.39-.64-.43-.5-5.22-5.38-8.14-8.34-.71-.72-.7-1.88,.02-2.59,.72-.71,1.88-.7,2.59,.02,1.28,1.3,7.69,7.8,8.32,8.54,.66,.77,.56,1.93-.21,2.58-.34,.29-.77,.44-1.19,.44Z"/>
          </g>
          <g>
            <g>
              <rect class="cls-8" x="273.18" y="226.46" width="23.18" height="44.05"/>
              <path class="cls-6" d="M296.36,272.33h-23.18c-1.01,0-1.83-.82-1.83-1.83v-44.05c0-1.01,.82-1.83,1.83-1.83h23.18c1.01,0,1.83,.82,1.83,1.83v44.05c0,1.01-.82,1.83-1.83,1.83Zm-21.35-3.66h19.52v-40.38h-19.52v40.38Z"/>
            </g>
            <g>
              <rect class="cls-3" x="233.48" y="222.98" width="79.07" height="8.11"/>
              <path class="cls-6" d="M312.55,232.92h-79.07c-1.01,0-1.83-.82-1.83-1.83v-8.11c0-1.01,.82-1.83,1.83-1.83h79.07c1.01,0,1.83,.82,1.83,1.83v8.11c0,1.01-.82,1.83-1.83,1.83Zm-77.23-3.66h75.4v-4.45h-75.4v4.45Z"/>
            </g>
            <g>
              <rect class="cls-11" x="233.48" y="264.71" width="102.58" height="17.39"/>
              <path class="cls-6" d="M336.06,283.93h-102.58c-1.01,0-1.83-.82-1.83-1.83v-17.39c0-1.01,.82-1.83,1.83-1.83h102.58c1.01,0,1.83,.82,1.83,1.83v17.39c0,1.01-.82,1.83-1.83,1.83Zm-100.75-3.66h98.92v-13.72h-98.92v13.72Z"/>
            </g>
            <g>
              <path class="cls-3" d="M285.77,254.61c-.22,.08-.43,.15-.65,.23l-4.75-13.86c.17-.06,.34-.12,.51-.18,29.34-10.36,46.91-41.9,39.22-70.6-3.99-14.86-14.58-27.75-29.07-35.36-15.2-7.98-33.16-9.29-49.29-3.59-.04,.02-.09,.03-.13,.05l-4.91-13.8c.05-.02,.11-.04,.16-.06,19.97-7.05,42.19-5.43,60.98,4.44,18.1,9.5,31.37,25.74,36.41,44.54,4.68,17.46,2.26,36.21-6.81,52.8-9.06,16.56-23.84,29.11-41.66,35.4Z"/>
              <path class="cls-6" d="M285.12,256.67c-.28,0-.55-.06-.8-.19-.44-.21-.77-.59-.93-1.05l-4.75-13.86c-.16-.46-.13-.96,.09-1.4,.21-.44,.59-.77,1.06-.93l.49-.17c28.41-10.03,45.48-40.71,38.06-68.39-3.85-14.37-14.11-26.84-28.15-34.22-14.74-7.74-32.18-9.01-47.83-3.49l-.13,.05c-.95,.33-2-.16-2.33-1.11l-4.91-13.8c-.16-.46-.14-.96,.07-1.4,.21-.44,.58-.78,1.04-.94l.16-.06c20.45-7.22,43.21-5.56,62.45,4.54,18.55,9.74,32.15,26.39,37.32,45.69,4.81,17.92,2.33,37.15-6.98,54.15-9.27,16.94-24.42,29.81-42.66,36.25l-.66,.23c-.19,.07-.4,.1-.6,.1Zm-2.44-14.58l3.57,10.4c16.9-6.26,30.93-18.35,39.58-34.16,8.85-16.17,11.21-34.44,6.65-51.44-4.91-18.31-17.85-34.12-35.49-43.39-17.84-9.37-38.87-11.12-57.95-4.87l3.68,10.36c16.2-5.23,34.02-3.71,49.15,4.24,14.94,7.85,25.87,21.15,29.99,36.51,7.8,29.1-9.73,61.28-39.18,72.36Z"/>
            </g>
            <g>
              <circle class="cls-8" cx="282.84" cy="248.48" r="10.43" transform="translate(-27.76 461.24) rotate(-75.71)"/>
              <path class="cls-6" d="M282.84,260.74c-6.76,0-12.26-5.5-12.26-12.26s5.5-12.26,12.26-12.26,12.26,5.5,12.26,12.26-5.5,12.26-12.26,12.26Zm0-20.86c-4.74,0-8.6,3.86-8.6,8.6s3.86,8.6,8.6,8.6,8.6-3.86,8.6-8.6-3.86-8.6-8.6-8.6Z"/>
            </g>
            <g>
              <g>
                <rect class="cls-3" x="229.11" y="81.73" width="22.02" height="86.55" transform="translate(-8.96 18.96) rotate(-4.44)"/>
                <path class="cls-6" d="M232.5,170.83c-.44,0-.86-.16-1.19-.44-.37-.32-.6-.77-.64-1.25l-6.7-86.29c-.08-1.01,.68-1.89,1.68-1.97l21.96-1.7c.48-.04,.96,.12,1.33,.43,.37,.32,.6,.77,.64,1.25l6.7,86.29c.08,1.01-.68,1.89-1.68,1.97l-21.96,1.7s-.09,0-.14,0Zm-4.73-86.43l6.42,82.64,18.31-1.42-6.42-82.64-18.31,1.42Z"/>
              </g>
              <g>
                <rect class="cls-8" x="226.25" y="81.84" width="22.02" height="12.43" transform="translate(-6.1 18.63) rotate(-4.44)"/>
                <path class="cls-6" d="M226.76,96.93c-.44,0-.86-.16-1.19-.44-.37-.32-.6-.77-.64-1.25l-.96-12.39c-.08-1.01,.68-1.89,1.68-1.97l21.96-1.7c.48-.04,.96,.12,1.33,.43,.37,.32,.6,.77,.64,1.25l.96,12.39c.08,1.01-.68,1.89-1.68,1.97l-21.96,1.71s-.09,0-.14,0Zm1.01-12.54l.68,8.74,18.31-1.42-.68-8.74-18.31,1.42Z"/>
              </g>
            </g>
            <g>
              <path class="cls-8" d="M247.03,121.44c1.38,3.92-.67,8.23-4.6,9.61s-8.23-.67-9.61-4.6c-1.38-3.92,.67-8.23,4.6-9.61,3.92-1.38,8.23,.67,9.61,4.6Z"/>
              <path class="cls-6" d="M239.94,133.31c-3.86,0-7.48-2.41-8.84-6.25-1.72-4.87,.84-10.23,5.71-11.95,4.87-1.72,10.23,.84,11.95,5.71h0c.83,2.36,.7,4.9-.38,7.16-1.08,2.26-2.97,3.96-5.33,4.79-1.03,.36-2.08,.53-3.11,.53Zm-.01-15.07c-.63,0-1.27,.1-1.89,.33-2.97,1.05-4.53,4.31-3.48,7.28,1.05,2.96,4.31,4.52,7.28,3.48,1.44-.51,2.59-1.54,3.25-2.92,.66-1.37,.74-2.92,.23-4.36h0c-.83-2.34-3.03-3.81-5.38-3.81Z"/>
            </g>
          </g>
          <g>
            <path class="cls-9" d="M160.03,286.31l1.16,27.43s83.32-10.49,102,6.95c39.97,37.33,29.75,224.08,29.75,224.08h-32.46l-32.84-187.38s-120.55,10.82-149.53-10.05c-28.98-20.86-22.41-57.96-22.41-57.96l104.32-3.09Z"/>
            <path class="cls-6" d="M292.94,546.61h-32.46c-.89,0-1.65-.64-1.8-1.52l-32.55-185.73c-15.29,1.28-121.42,9.39-149.08-10.53-8.54-6.15-19.43-17.73-22.81-37.99-2.01-12.05-.4-21.38-.34-21.77,.15-.85,.88-1.49,1.75-1.51l104.32-3.09c1.02,0,1.84,.75,1.88,1.75l1.08,25.46c13.08-1.52,83.83-8.84,101.51,7.67,16.94,15.82,27.18,58.65,30.45,127.29,2.42,50.86-.09,97.76-.12,98.23-.05,.97-.86,1.73-1.83,1.73Zm-30.92-3.66h29.17c.42-8.92,2.18-50.97,.03-96.15-3.17-66.69-13.3-109.83-29.29-124.76-7.28-6.8-26.9-10.1-56.72-9.53-22.8,.43-43.59,3.02-43.8,3.05-.51,.06-1.02-.09-1.41-.42-.39-.33-.63-.81-.65-1.32l-1.08-25.63-100.96,2.99c-.79,6.96-2.61,37.06,21.87,54.68,28.1,20.23,147.09,9.81,148.29,9.71,.94-.09,1.8,.57,1.97,1.51l32.58,185.86Z"/>
          </g>
          <g>
            <path class="cls-9" d="M55.85,290.06s-17.17,75.97,24.59,81.25c50.42,6.38,93.89,7.73,93.89,7.73l16.64,170h32.46s34.86-184.35-5.43-223.32c-13.56-13.12-75.34-4.25-75.34-4.25"/>
            <path class="cls-6" d="M223.42,550.87h-32.46c-.94,0-1.73-.71-1.82-1.65l-16.48-168.41c-8.34-.32-47.92-2.05-92.45-7.68-8.75-1.11-15.69-5.25-20.65-12.32-6.81-9.72-9.8-24.68-8.88-44.46,.68-14.59,3.27-26.2,3.38-26.69,.22-.99,1.2-1.61,2.19-1.38,.99,.22,1.61,1.2,1.38,2.19-.1,.46-10.28,46.57,4.92,68.25,4.34,6.19,10.43,9.81,18.11,10.78,49.76,6.29,93.28,7.7,93.72,7.71,.92,.03,1.68,.74,1.77,1.65l16.48,168.35h29.27c3.18-17.6,32.06-184.16-5.18-220.17-10.59-10.24-56.87-6.18-73.81-3.75-1,.14-1.93-.55-2.07-1.55-.14-1,.55-1.93,1.55-2.07,2.56-.37,62.83-8.84,76.88,4.75,17.12,16.56,23.3,59.53,18.38,127.72-3.64,50.48-12.33,96.79-12.42,97.26-.16,.86-.92,1.49-1.8,1.49Z"/>
          </g>
          <g>
            <path class="cls-1" d="M115.47,124.82s-33.49,11.96-42.38,23.55c-8.89,11.59-24.34,101.62-20.48,141.03l110.5-3.86s14.68-127.89,13.52-132.14-18.55-24.73-18.55-24.73l-42.62-3.85Z"/>
            <path class="cls-6" d="M52.62,291.23c-.94,0-1.73-.71-1.82-1.65-3.72-37.99,11.02-129.51,20.85-142.32,9.11-11.88,41.83-23.67,43.22-24.16,.25-.09,.51-.12,.78-.1l42.62,3.85c.48,.04,.92,.27,1.23,.64,2.95,3.47,17.71,21.01,18.92,25.43,1.19,4.37-11.01,111.42-13.47,132.83-.1,.9-.85,1.59-1.76,1.62l-110.5,3.86s-.04,0-.07,0ZM115.71,126.68c-3.68,1.35-33.2,12.42-41.17,22.81-8.34,10.88-23.48,98.26-20.26,138.02l107.19-3.75c5.77-50.34,13.95-125.22,13.38-129.94-.86-2.85-11.07-15.59-17.68-23.4l-41.47-3.75Z"/>
          </g>
          <g>
            <polygon class="cls-13" points="125.56 101.78 158.13 114.51 151.91 147.99 115.47 124.82 125.56 101.78"/>
            <path class="cls-6" d="M151.91,149.82c-.34,0-.68-.1-.98-.29l-36.44-23.17c-.76-.48-1.06-1.45-.69-2.28l10.09-23.04c.39-.9,1.43-1.33,2.34-.97l32.57,12.72c.82,.32,1.29,1.18,1.13,2.04l-6.22,33.48c-.11,.6-.51,1.1-1.07,1.34-.23,.1-.48,.15-.73,.15Zm-34.13-25.7l32.83,20.87,5.44-29.33-29.52-11.53-8.76,19.99Z"/>
          </g>
          <g>
            <path class="cls-13" d="M120.8,51.09c4.18-20.18,13.92-42.45,33.05-38.62,19.14,3.83,30.92,20.02,30.92,20.02,8.85,10.2,4.47,24.73,2.35,36.68-1.78,22.7-10.65,51.16-34.5,50.05,0,0-24.17-.28-32.87-15.59-11.21-19.72,1.04-52.54,1.04-52.54Z"/>
            <path class="cls-6" d="M153.93,121.09c-.46,0-.93-.01-1.39-.03-.19,0-6.3-.09-13.58-2.12-9.81-2.73-17-7.71-20.8-14.4-11.24-19.79-.1-51.3,.87-53.95,1.75-8.42,5.11-20.22,11.18-28.86,6.48-9.22,14.55-12.94,24-11.05,19.19,3.84,31.03,19.37,32,20.67,8.28,9.61,5.78,22.37,3.57,33.63-.3,1.51-.59,2.99-.84,4.43-.62,7.88-2.65,22.76-9.19,34.61-6.18,11.19-15.09,17.07-25.82,17.07Zm-4.25-107.21c-6.29,0-11.82,3.34-16.47,9.95-5.75,8.17-8.95,19.54-10.62,27.63-.02,.09-.05,.18-.08,.27-.12,.32-11.82,32.25-1.17,51,8.07,14.2,31.07,14.66,31.3,14.66,10.07,.48,18.09-4.63,23.9-15.15,4.62-8.36,7.73-20.16,8.75-33.21,0-.06,.01-.12,.02-.18,.27-1.49,.57-3.02,.87-4.58,2.05-10.46,4.37-22.32-2.8-30.58-.03-.04-.07-.08-.1-.12-.11-.15-11.62-15.67-29.8-19.3-1.3-.26-2.57-.39-3.81-.39Zm-28.89,37.22h0Z"/>
          </g>
          <path class="cls-6" d="M119.84,65.51c6.29-3.42,16.1-31.69,14.63-38.65,25.78,18.44,73.55,16.41,77.04-19.33-12.9,7.75-28.8-2.94-42.31-5.48-14.27-1.87-38.78-6.47-44.76,9.89-31.24,9.17-13.5,46.72-12.7,53.05l8.1,.52Z"/>
          <g>
            <polygon class="cls-1" points="109.03 126.74 115.21 115.92 151.14 145.28 149.6 168.85 109.03 126.74"/>
            <path class="cls-6" d="M149.6,170.68c-.49,0-.97-.2-1.32-.56l-40.57-42.11c-.56-.59-.67-1.47-.27-2.18l6.18-10.82c.27-.47,.73-.79,1.26-.89,.53-.1,1.08,.04,1.49,.38l35.93,29.36c.46,.37,.71,.95,.67,1.54l-1.55,23.57c-.05,.72-.52,1.35-1.2,1.6-.21,.07-.42,.11-.63,.11Zm-38.3-44.23l36.74,38.14,1.21-18.49-33.53-27.4-4.43,7.75Z"/>
          </g>
          <g>
            <polygon class="cls-1" points="151.91 144.9 163.89 164.22 161.96 131.38 156.16 123.26 151.91 144.9"/>
            <path class="cls-6" d="M163.89,166.05c-.62,0-1.22-.32-1.56-.87l-11.98-19.32c-.24-.39-.33-.86-.24-1.32l4.25-21.64c.14-.72,.69-1.28,1.41-1.44,.72-.15,1.45,.13,1.88,.73l5.8,8.11c.2,.28,.32,.61,.34,.96l1.93,32.84c.05,.84-.48,1.6-1.27,1.85-.18,.06-.37,.09-.55,.09Zm-10.04-21.5l7.79,12.56-1.48-25.1-3.02-4.23-3.29,16.76Z"/>
          </g>
          <g>
            <g>
              <path class="cls-13" d="M257.44,225.19c-6.38,2.46-27.96,12.67-34.16,23.57l-38.55-.5-.34,20.64,40.74-.76c5.31,7.91,17.07,5.43,25.11,4.68v.05s27.8,.84,27.8,.84c3.93-.68,3.45-6.05-.56-6.24-6.03-.3-21.1-2.94-21.1-2.94l24.57-1.32c2.16,.06,3.76-1.65,3.72-3.27-.05-1.73-1.99-3.42-4.28-2.98-7.27,.01-24.75-1.22-24.75-1.22l27.13-4.06c2.33,.07,3.97-1.92,3.74-3.63-.22-1.64-2.14-3.09-4.3-2.61-8.15,.73-26.82,.97-26.82,.97l23.59-5.75c5.17-.12,4.54-7.16-.56-6.24-9.42,1.52-23.07,4.71-32.5,6.23,2.22-4.82,18.11-8.68,16.1-14.08-.8-1.65-2.91-2.32-4.56-1.39Z"/>
              <path class="cls-6" d="M238.71,275.61c-5.48,0-10.97-1.12-14.5-5.62l-39.79,.74c-.52,.02-.98-.18-1.33-.53-.35-.35-.55-.83-.54-1.33l.34-20.64c.02-1.01,.84-1.82,1.85-1.8l37.51,.49c7.03-10.91,27.45-20.69,34.41-23.39,1.2-.63,2.62-.76,3.93-.35,1.34,.42,2.45,1.37,3.05,2.6,.03,.05,.05,.11,.07,.16,1.71,4.58-4.02,7.72-9.08,10.49-.68,.38-1.41,.77-2.13,1.18,3-.58,6.16-1.22,9.27-1.86,5.69-1.16,11.58-2.36,16.32-3.13,2.16-.39,4.09,.28,5.27,1.83,1.11,1.47,1.31,3.49,.51,5.17-.83,1.73-2.53,2.77-4.67,2.88l-6.85,1.67c3.61-.14,7.07-.31,9.55-.53,1.5-.3,3.06,.03,4.3,.89,1.16,.81,1.92,2.01,2.09,3.29,.18,1.35-.29,2.76-1.29,3.87-1.05,1.17-2.55,1.83-4.13,1.83l-9.52,1.43c2.63,.11,5.06,.19,6.87,.19,1.56-.25,3.14,.16,4.37,1.14,1.17,.93,1.86,2.25,1.9,3.61,.04,1.26-.5,2.55-1.48,3.53-1.06,1.06-2.53,1.66-4.04,1.63l-6.4,.34c1.13,.12,2.15,.21,2.99,.25,3.1,.15,4.86,2.5,5,4.75,.16,2.56-1.58,4.67-4.22,5.13-.12,.02-.25,.03-.37,.03l-27.8-.84c-.06,0-.12,0-.18-.01-.82,.08-1.69,.18-2.57,.28-2.68,.3-5.7,.64-8.72,.64Zm-13.58-9.3c.61,0,1.18,.3,1.52,.81,4.06,6.05,13.1,5.03,20.37,4.2,1.06-.12,2.08-.23,3.05-.33,.22-.02,.43,0,.63,.05l27.18,.83c.98-.24,1.05-.96,1.03-1.27-.04-.6-.46-1.26-1.53-1.31-6.08-.31-20.71-2.85-21.33-2.96-.92-.16-1.57-.98-1.51-1.91,.06-.93,.8-1.67,1.73-1.72l24.57-1.32s.1,0,.15,0c.73,.03,1.21-.34,1.43-.55,.26-.26,.42-.58,.41-.83,0-.27-.21-.61-.53-.86-.26-.2-.8-.52-1.57-.37-.15,.03-.31,.03-.47,.03-7.31,0-24.05-1.17-24.76-1.23-.93-.07-1.66-.82-1.7-1.76-.04-.93,.64-1.74,1.56-1.88l27.13-4.06c.11-.02,.21-.02,.32-.02,.77,.02,1.27-.38,1.49-.62,.27-.3,.42-.66,.38-.94-.03-.26-.25-.56-.56-.77-.26-.18-.79-.46-1.53-.29-.08,.02-.15,.03-.23,.04-8.13,.73-26.19,.97-26.96,.98-.93,.01-1.72-.68-1.84-1.6-.12-.92,.48-1.79,1.38-2.01l23.59-5.75c.13-.03,.26-.05,.39-.05,.59-.01,1.36-.17,1.67-.82,.21-.44,.16-.98-.13-1.36-.41-.54-1.17-.53-1.74-.43-4.71,.76-10.55,1.95-16.21,3.11-5.69,1.16-11.57,2.36-16.32,3.13-.67,.11-1.34-.16-1.75-.7-.41-.54-.49-1.26-.2-1.87,1.2-2.6,4.81-4.58,8.64-6.68,3.14-1.72,7.85-4.3,7.43-5.92-.17-.3-.45-.52-.8-.63-.23-.07-.69-.15-1.17,.12-.08,.04-.16,.08-.24,.11-5.48,2.12-27.2,12.18-33.23,22.77-.33,.58-.94,.92-1.61,.93l-36.73-.48-.28,16.92,38.85-.72s.02,0,.03,0Zm32.32-41.13h0Z"/>
            </g>
            <g>
              <path class="cls-15" d="M257.44,225.19c-6.38,2.46-27.65,10.91-33.86,21.81l-8.28,.33,.68,22.57,9.06-.29c5.31,7.91,17.16,3.98,25.19,3.23v.05s27.8,.84,27.8,.84c3.93-.68,3.45-6.05-.56-6.24-6.03-.3-21.1-2.94-21.1-2.94l24.57-1.32c2.16,.06,3.76-1.65,3.72-3.27-.05-1.73-1.99-3.42-4.28-2.98-7.27,.01-24.75-1.22-24.75-1.22l27.13-4.06c2.33,.07,3.97-1.92,3.74-3.63-.22-1.64-2.14-3.09-4.3-2.61-8.15,.73-26.82,.97-26.82,.97l23.59-5.75c5.17-.12,4.54-7.16-.56-6.24-9.42,1.52-23.07,4.71-32.5,6.23,2.22-4.82,18.11-8.68,16.1-14.08-.8-1.65-2.91-2.32-4.56-1.39Z"/>
              <path class="cls-6" d="M236.07,276.3c-4.58,0-8.94-1.06-11.94-4.84l-8.09,.26c-.48,.02-.96-.16-1.31-.5-.35-.33-.56-.79-.58-1.28l-.68-22.57c-.03-1,.75-1.85,1.76-1.88l7.3-.29c5.99-9.3,21.74-16.89,34.14-21.68,1.2-.63,2.62-.76,3.92-.35,1.34,.42,2.45,1.37,3.05,2.6,.03,.05,.05,.11,.07,.16,1.71,4.58-4.02,7.72-9.08,10.49-.68,.38-1.41,.77-2.13,1.18,3-.58,6.16-1.22,9.27-1.86,5.69-1.16,11.58-2.36,16.32-3.13,2.16-.39,4.09,.28,5.27,1.83,1.11,1.47,1.31,3.49,.51,5.17-.83,1.73-2.53,2.77-4.67,2.88l-6.85,1.67c3.61-.14,7.07-.31,9.55-.53,1.5-.3,3.06,.03,4.3,.89,1.16,.81,1.92,2.01,2.09,3.29,.18,1.35-.29,2.76-1.29,3.87-1.05,1.17-2.55,1.83-4.13,1.83l-9.52,1.43c2.63,.11,5.06,.19,6.87,.19,1.56-.25,3.14,.16,4.37,1.14,1.17,.93,1.86,2.25,1.9,3.61,.04,1.26-.5,2.55-1.48,3.53-1.06,1.06-2.53,1.66-4.04,1.63l-6.4,.34c1.13,.12,2.15,.21,2.99,.25,3.1,.15,4.86,2.5,5,4.75,.16,2.56-1.58,4.67-4.22,5.13-.12,.02-.25,.03-.37,.03l-27.8-.84c-.06,0-.12,0-.18-.01-1.39,.15-2.9,.38-4.49,.63-2.99,.47-6.27,.98-9.45,.98Zm-11.03-8.53c.61,0,1.18,.3,1.52,.81,3.64,5.42,11.48,4.2,18.39,3.12,1.8-.28,3.5-.55,5.11-.7,.22-.02,.43,0,.63,.05l27.18,.83c.98-.24,1.05-.96,1.03-1.27-.04-.6-.46-1.26-1.53-1.31-6.08-.31-20.71-2.85-21.33-2.96-.92-.16-1.57-.98-1.51-1.91,.06-.93,.8-1.67,1.73-1.72l24.57-1.32s.1,0,.15,0c.75,.03,1.21-.34,1.43-.55,.26-.26,.42-.58,.41-.83,0-.27-.21-.61-.53-.86-.26-.2-.8-.52-1.57-.37-.15,.03-.31,.03-.47,.03-7.31,0-24.05-1.17-24.76-1.23-.93-.07-1.66-.82-1.7-1.76-.04-.93,.64-1.74,1.56-1.88l27.13-4.06c.11-.02,.21-.02,.32-.02,.77,.02,1.27-.38,1.49-.62,.27-.3,.42-.66,.38-.94-.03-.26-.25-.56-.56-.77-.26-.18-.79-.46-1.53-.29-.08,.02-.15,.03-.23,.04-8.13,.73-26.19,.97-26.96,.98-.93,.01-1.72-.68-1.84-1.6-.12-.92,.48-1.79,1.38-2.01l23.59-5.75c.13-.03,.26-.05,.39-.05,.59-.01,1.36-.17,1.67-.82,.21-.44,.16-.98-.13-1.36-.41-.54-1.17-.53-1.74-.43-4.71,.76-10.55,1.95-16.21,3.11-5.69,1.16-11.57,2.36-16.32,3.13-.67,.11-1.34-.16-1.75-.7-.41-.54-.49-1.26-.2-1.87,1.2-2.6,4.81-4.58,8.64-6.68,3.14-1.72,7.85-4.3,7.43-5.92-.17-.3-.45-.52-.8-.63-.23-.07-.69-.15-1.17,.12-.08,.04-.16,.08-.24,.11-17.32,6.68-29.01,14.14-32.92,21-.31,.55-.89,.9-1.52,.92l-6.47,.25,.57,18.92,7.22-.23s.04,0,.06,0Zm32.41-42.58h0Z"/>
            </g>
            <g>
              <path class="cls-1" d="M79.28,157.26s-14.3,7.34-9.27,31.3c3.29,15.67,17.85,85.02,31.3,91.96,17.58,9.07,103.16-6.57,103.16-6.57l-1.16-28.4s-77.27-.58-78.82-.97c-1.55-.39-15.84-74.18-16.23-75.73-.39-1.55-3.09-15.45-20.86-15.07"/>
              <path class="cls-6" d="M121.85,285.17c-10.33,0-17.48-1.01-21.39-3.03-9.45-4.88-20.3-36.24-32.25-93.21-5.25-25.03,9.59-32.98,10.23-33.3,.9-.46,2-.11,2.47,.79,.46,.9,.11,2-.79,2.46-.57,.3-12.96,7.16-8.32,29.29,5.3,25.3,18.88,84.79,30.34,90.7,4.78,2.47,18.58,4.46,57.1-.07,19.65-2.31,37.97-5.45,43.32-6.39l-1.02-25.06c-29.11-.22-76.01-.63-77.5-1.01-1.52-.38-1.92-.48-7.74-28.38-3.04-14.6-6.47-31.87-8.31-41.14-.8-4.03-1.43-7.22-1.51-7.55l-.05-.2c-1.22-5.16-5.3-13.77-19-13.47-1.03,.02-1.85-.78-1.87-1.79-.02-1.01,.78-1.85,1.79-1.87,16.85-.39,21.45,11.27,22.64,16.29l.04,.17c.08,.32,.51,2.47,1.55,7.72,3,15.15,11.87,59.83,14.1,66.7,6.95,.28,49.17,.67,77.63,.89,.98,0,1.78,.78,1.82,1.76l1.16,28.4c.04,.91-.6,1.71-1.5,1.88-.21,.04-21.72,3.95-45.1,6.7-15.41,1.81-28.05,2.72-37.83,2.72Z"/>
            </g>
            <path class="cls-6" d="M225.49,265c-1.01,0-1.83-.82-1.83-1.83,0-.66-.48-7.48-.79-11.62-.07-1.01,.68-1.89,1.69-1.96,1.01-.08,1.89,.68,1.96,1.69,.13,1.82,.8,10.92,.8,11.89s-.82,1.83-1.83,1.83Z"/>
          </g>
          <g>
            <g>
              <path class="cls-15" d="M134.46,78.31l32.91-1.57,17.24,8.1s-4.7,24.81-19.85,32.38c-15.15,7.57-35-4.7-39.7-7.83l9.4-31.08Z"/>
              <path class="cls-6" d="M153.86,121.47c-12.74,0-25.42-7.63-29.82-10.57-.67-.45-.97-1.28-.74-2.05l9.4-31.08c.22-.74,.89-1.26,1.67-1.3l32.91-1.57c.3-.01,.6,.04,.87,.17l17.24,8.1c.76,.36,1.18,1.18,1.02,2-.05,.26-1.25,6.48-4.36,13.73-4.25,9.9-9.79,16.61-16.47,19.95-3.74,1.87-7.73,2.62-11.71,2.62Zm-26.66-12.87c3.08,1.96,8.28,4.93,14.37,6.98,8.86,2.99,16.38,2.99,22.36,0,12.17-6.08,17.33-24.51,18.56-29.71l-15.5-7.28-31.16,1.48-8.63,28.53Z"/>
            </g>
            <path class="cls-6" d="M134.46,79.93c-.28,0-.56-.11-.78-.32l-14.1-14.1c-.43-.43-.43-1.12,0-1.55,.43-.43,1.12-.43,1.55,0l14.1,14.1c.43,.43,.43,1.12,0,1.55-.21,.21-.5,.32-.78,.32Z"/>
            <path class="cls-6" d="M176.25,96.64c-.13,0-.25-.02-.38-.07-.57-.21-.86-.84-.65-1.41l2.87-7.83c.21-.57,.84-.86,1.41-.65,.57,.21,.86,.84,.65,1.41l-2.87,7.83c-.16,.44-.58,.72-1.03,.72Z"/>
            <path class="cls-6" d="M162.4,114.66c-.46,0-.89-.29-1.04-.75-.19-.58,.12-1.2,.69-1.39,5.73-1.91,10.78-13.38,10.83-13.5,.24-.56,.89-.81,1.45-.57,.56,.24,.81,.89,.57,1.45-.22,.51-5.5,12.49-12.15,14.71-.12,.04-.23,.06-.35,.06Z"/>
            <path class="cls-6" d="M174.42,86.98c-.13,0-.26-.02-.38-.07l-8.93-3.32-27.98,1.55c-.59,.04-1.12-.43-1.16-1.04-.03-.61,.43-1.12,1.04-1.16l28.21-1.57c.15,0,.3,.01,.44,.07l9.14,3.4c.57,.21,.86,.84,.65,1.41-.16,.44-.58,.72-1.03,.72Z"/>
          </g>
          <path class="cls-8" d="M185.86,52.39c-7.97,0-14.66,5.59-16.37,13.05l-7.3-.14c-.9-8.42-8.04-15-16.7-15s-15.21,6.05-16.55,13.97l-12.84-1.38c-1.01-.11-1.91,.62-2.02,1.63-.11,1.01,.62,1.91,1.63,2.02l13.01,1.39c.44,8.87,7.79,15.95,16.77,15.95s15.76-6.54,16.69-14.93l6.88,.14s0,.06,0,.09c0,9.26,7.53,16.79,16.79,16.79s16.79-7.53,16.79-16.79-7.53-16.79-16.79-16.79Zm-40.36,27.84c-7.24,0-13.13-5.89-13.13-13.13s5.89-13.13,13.13-13.13,13.13,5.89,13.13,13.13-5.89,13.13-13.13,13.13Zm40.36,2.09c-7.24,0-13.13-5.89-13.13-13.13s5.89-13.13,13.13-13.13,13.13,5.89,13.13,13.13-5.89,13.13-13.13,13.13Z"/>
          <g>
            <path class="cls-13" d="M117.74,92.35c-12.49,2.56-20.56-18.05-11.91-26.02,4.72-2.8,12.93-2.32,15.44,3.21"/>
            <path class="cls-6" d="M115.65,94.4c-5.13,0-9.89-3.29-12.83-9.02-4.48-8.75-2.22-16.7,1.77-20.39,.09-.09,.2-.16,.31-.23,3.34-1.98,7.94-2.49,11.74-1.3,2.97,.93,5.15,2.77,6.31,5.33,.42,.92,.01,2.01-.91,2.42-.92,.42-2.01,.01-2.42-.91-.9-1.99-2.71-2.92-4.07-3.35-2.74-.86-6.17-.51-8.61,.86-3.95,3.81-3.44,10.85-.86,15.89,1,1.95,4.75,8.19,11.3,6.85,.99-.2,1.96,.44,2.16,1.43s-.44,1.96-1.43,2.16c-.83,.17-1.65,.25-2.46,.25Z"/>
          </g>
        </g>
        <g>
          <g>
            <path class="cls-18" d="M577.11,273.76h-164.15l18.79-106.56c.68-3.85,4.02-6.65,7.93-6.65h147.81c5,0,8.8,4.52,7.93,9.45l-18.3,103.77Z"/>
            <path class="cls-6" d="M577.11,275.59h-164.15c-.54,0-1.05-.24-1.4-.65-.35-.41-.49-.96-.4-1.5l18.79-106.56c.83-4.73,4.93-8.16,9.73-8.16h147.81c2.93,0,5.69,1.29,7.57,3.53,1.88,2.24,2.67,5.18,2.16,8.07l-18.3,103.77c-.15,.88-.91,1.51-1.8,1.51Zm-161.97-3.66h160.43l18.03-102.25c.32-1.81-.18-3.66-1.36-5.08-1.18-1.41-2.92-2.22-4.76-2.22h-147.81c-3.02,0-5.6,2.16-6.12,5.14l-18.41,104.41Z"/>
          </g>
          <g>
            <rect class="cls-1" x="311.97" y="273.76" width="264.86" height="7.82"/>
            <path class="cls-6" d="M576.83,283.41H311.97c-1.01,0-1.83-.82-1.83-1.83v-7.82c0-1.01,.82-1.83,1.83-1.83h264.86c1.01,0,1.83,.82,1.83,1.83v7.82c0,1.01-.82,1.83-1.83,1.83Zm-263.03-3.66h261.19v-4.16H313.8v4.16Z"/>
          </g>
          <g>
            <rect class="cls-18" x="412.3" y="273.76" width="164.52" height="7.82"/>
            <path class="cls-6" d="M576.83,283.41h-164.52c-1.01,0-1.83-.82-1.83-1.83v-7.82c0-1.01,.82-1.83,1.83-1.83h164.52c1.01,0,1.83,.82,1.83,1.83v7.82c0,1.01-.82,1.83-1.83,1.83Zm-162.69-3.66h160.86v-4.16h-160.86v4.16Z"/>
          </g>
          <path class="cls-6" d="M421.61,267.16c-.11,0-.21,0-.32-.03-1-.18-1.66-1.13-1.48-2.12l15.79-89.04c.18-1,1.13-1.66,2.12-1.48,1,.18,1.66,1.13,1.48,2.12l-15.79,89.04c-.16,.89-.93,1.51-1.8,1.51Z"/>
          <path class="cls-6" d="M439.59,170.66c-.38,0-.77-.12-1.1-.37-.81-.61-.97-1.75-.36-2.56,.33-.43,3.29-4.24,7.17-4.24,1.01,0,1.83,.82,1.83,1.83s-.82,1.83-1.83,1.83c-1.74,0-3.69,2.06-4.24,2.78-.36,.47-.91,.73-1.46,.73Z"/>
          <path class="cls-6" d="M579.51,167.59h0l-126.33-.44c-1.01,0-1.83-.83-1.82-1.84,0-1.01,.82-1.82,1.83-1.82h0l126.33,.44c1.01,0,1.83,.83,1.82,1.84,0,1.01-.82,1.82-1.83,1.82Z"/>
        </g>
        <g>
          <g>
            <rect class="cls-4" x="195.19" y="299.8" width="16.23" height="303.33"/>
            <path class="cls-6" d="M211.42,604.97h-16.23c-1.01,0-1.83-.82-1.83-1.83V299.8c0-1.01,.82-1.83,1.83-1.83h16.23c1.01,0,1.83,.82,1.83,1.83v303.33c0,1.01-.82,1.83-1.83,1.83Zm-14.4-3.66h12.57V301.63h-12.57v299.67Z"/>
          </g>
          <g>
            <rect class="cls-4" x="391.61" y="299.8" width="16.23" height="303.33"/>
            <path class="cls-6" d="M407.84,604.97h-16.23c-1.01,0-1.83-.82-1.83-1.83V299.8c0-1.01,.82-1.83,1.83-1.83h16.23c1.01,0,1.83,.82,1.83,1.83v303.33c0,1.01-.82,1.83-1.83,1.83Zm-14.4-3.66h12.57V301.63h-12.57v299.67Z"/>
          </g>
          <g>
            <rect class="cls-10" x="495.69" y="299.8" width="16.23" height="296.29"/>
            <path class="cls-6" d="M511.92,597.92h-16.23c-1.01,0-1.83-.82-1.83-1.83V299.8c0-1.01,.82-1.83,1.83-1.83h16.23c1.01,0,1.83,.82,1.83,1.83v296.29c0,1.01-.82,1.83-1.83,1.83Zm-14.4-3.66h12.57V301.63h-12.57v292.62Z"/>
          </g>
          <g>
            <rect class="cls-10" x="678.92" y="299.8" width="16.23" height="296.29"/>
            <path class="cls-6" d="M695.15,597.92h-16.23c-1.01,0-1.83-.82-1.83-1.83V299.8c0-1.01,.82-1.83,1.83-1.83h16.23c1.01,0,1.83,.82,1.83,1.83v296.29c0,1.01-.82,1.83-1.83,1.83Zm-14.4-3.66h12.56V301.63h-12.56v292.62Z"/>
          </g>
          <g>
            <rect class="cls-4" x="156.07" y="282.35" width="522.05" height="10.43"/>
            <path class="cls-6" d="M678.12,294.61H156.07c-1.01,0-1.83-.82-1.83-1.83v-10.43c0-1.01,.82-1.83,1.83-1.83H678.12c1.01,0,1.83,.82,1.83,1.83v10.43c0,1.01-.82,1.83-1.83,1.83Zm-520.22-3.66H676.29v-6.77H157.9v6.77Z"/>
          </g>
          <g>
            <rect class="cls-4" x="175.37" y="292.78" width="483.45" height="16.91"/>
            <path class="cls-6" d="M658.82,311.52H175.37c-1.01,0-1.83-.82-1.83-1.83v-16.91c0-1.01,.82-1.83,1.83-1.83h483.45c1.01,0,1.83,.82,1.83,1.83v16.91c0,1.01-.82,1.83-1.83,1.83Zm-481.62-3.66h479.78v-13.25H177.2v13.25Z"/>
          </g>
          <g>
            <rect class="cls-2" x="408.17" y="282.35" width="314.7" height="10.43"/>
            <path class="cls-6" d="M722.87,294.61H408.17c-1.01,0-1.83-.82-1.83-1.83v-10.43c0-1.01,.82-1.83,1.83-1.83h314.7c1.01,0,1.83,.82,1.83,1.83v10.43c0,1.01-.82,1.83-1.83,1.83Zm-312.87-3.66h311.04v-6.77H410.01v6.77Z"/>
          </g>
          <g>
            <rect class="cls-2" x="419.81" y="292.78" width="291.43" height="16.91"/>
            <path class="cls-6" d="M711.24,311.52H419.81c-1.01,0-1.83-.82-1.83-1.83v-16.91c0-1.01,.82-1.83,1.83-1.83h291.43c1.01,0,1.83,.82,1.83,1.83v16.91c0,1.01-.82,1.83-1.83,1.83Zm-289.6-3.66h287.76v-13.25H421.64v13.25Z"/>
          </g>
        </g>
      </g>
      <g>
        <path class="cls-16" d="M670.75,201.97h-53.3v70.48c0,5.49,4.45,9.94,9.94,9.94h33.43c5.49,0,9.94-4.45,9.94-9.94v-52.05l7.38-18.43h-7.38Z"/>
        <path class="cls-6" d="M660.82,284.23h-33.43c-6.5,0-11.78-5.28-11.78-11.78v-70.48c0-1.02,.83-1.84,1.84-1.84h60.68c.61,0,1.18,.3,1.53,.81,.34,.51,.41,1.15,.18,1.72l-7.25,18.1v51.69c0,6.5-5.28,11.78-11.78,11.78Zm-41.52-80.42v68.64c0,4.46,3.63,8.09,8.09,8.09h33.43c4.46,0,8.09-3.63,8.09-8.09v-52.05c0-.23,.05-.47,.13-.69l6.37-15.9h-56.11Z"/>
      </g>
      <path class="cls-7" d="M624.04,236.04h39.74v32.9c0,4.2-3.41,7.61-7.61,7.61h-24.53c-4.2,0-7.61-3.41-7.61-7.61v-32.9h0Z"/>
      <path class="cls-6" d="M628.44,229.53h-10.29c-1.02,0-1.84-.83-1.84-1.84s.83-1.84,1.84-1.84h10.29c1.02,0,1.84,.83,1.84,1.84s-.83,1.84-1.84,1.84Z"/>
      <path class="cls-6" d="M628.44,236.91h-10.29c-1.02,0-1.84-.83-1.84-1.84s.83-1.84,1.84-1.84h10.29c1.02,0,1.84,.83,1.84,1.84s-.83,1.84-1.84,1.84Z"/>
      <path class="cls-6" d="M628.44,244.29h-10.29c-1.02,0-1.84-.83-1.84-1.84s.83-1.84,1.84-1.84h10.29c1.02,0,1.84,.83,1.84,1.84s-.83,1.84-1.84,1.84Z"/>
      <path class="cls-6" d="M628.44,251.67h-10.29c-1.02,0-1.84-.83-1.84-1.84s.83-1.84,1.84-1.84h10.29c1.02,0,1.84,.83,1.84,1.84s-.83,1.84-1.84,1.84Z"/>
      <path class="cls-6" d="M628.44,259.06h-10.29c-1.02,0-1.84-.83-1.84-1.84s.83-1.84,1.84-1.84h10.29c1.02,0,1.84,.83,1.84,1.84s-.83,1.84-1.84,1.84Z"/>
      <path class="cls-6" d="M628.44,266.44h-10.29c-1.02,0-1.84-.83-1.84-1.84s.83-1.84,1.84-1.84h10.29c1.02,0,1.84,.83,1.84,1.84s-.83,1.84-1.84,1.84Z"/>
    </g>
  </g>
</svg>